<svg width="25" height="25" viewBox="0 0 25 25" fill="none" xmlns="http://www.w3.org/2000/svg">
<path d="M16.2154 8.59178V12.6868C16.2154 13.8067 15.8416 14.9543 15.1641 15.9175C14.5566 16.7818 13.7325 17.4708 12.7068 17.9729C13.1581 18.1622 13.7682 18.3943 14.0092 18.4852C14.826 17.9619 15.5088 17.3128 16.0513 16.5419C16.8566 15.3972 17.3003 14.028 17.3003 12.6868V8.7642C16.9911 8.70977 16.6245 8.6501 16.2154 8.59178ZM12.1811 18.2073C10.9089 17.6936 9.90695 16.9246 9.19884 15.9175C8.52065 14.9543 8.14741 13.8067 8.14741 12.6868V10.189C7.79681 10.2414 7.0625 10.3789 7.0625 10.3789V12.6868C7.0625 14.028 7.50623 15.3972 8.31087 16.5419C9.21794 17.8312 10.5187 18.7805 12.1811 19.367H12.1817C12.6742 19.1933 13.1348 18.9878 13.5626 18.7503C13.5368 18.7412 12.7108 18.432 12.1811 18.2073ZM12.1811 8.28125C10.1788 8.28125 8.21942 8.56152 7.0625 8.7642V9.87801C7.0625 9.87801 7.79681 9.74058 8.14741 9.68801C9.28539 9.51931 10.7226 9.36615 12.1811 9.36615C13.4335 9.36615 14.6698 9.4789 15.7145 9.61819V8.52416C14.6788 8.39163 13.4384 8.28125 12.1811 8.28125Z" fill="#67778E"/>
<path d="M12.9072 1.07294C12.8948 1.24706 13.0067 1.38386 13.1808 1.40874C13.3425 1.42117 13.4918 1.2968 13.5042 1.13513C13.5166 0.961012 13.4047 0.811771 13.2306 0.799334H13.2057C13.044 0.799334 12.9197 0.923702 12.9072 1.07294ZM11.1288 0.799334C10.9671 0.811771 10.8427 0.961012 10.8552 1.13513C10.8676 1.2968 11.0169 1.42117 11.191 1.40874C11.3526 1.38386 11.477 1.24706 11.4646 1.07294C11.4521 0.923702 11.3153 0.799334 11.1537 0.799334H11.1288ZM14.9344 1.38386C14.8847 1.54554 14.9842 1.70722 15.1458 1.74453C15.3075 1.79427 15.4692 1.69478 15.5189 1.5331C15.5563 1.37142 15.4568 1.20975 15.2951 1.16C15.2702 1.16 15.2453 1.16 15.2205 1.16C15.0837 1.16 14.9593 1.24706 14.9344 1.38386ZM9.06428 1.16C8.90261 1.20975 8.80311 1.37142 8.85286 1.5331C8.89017 1.69478 9.06428 1.79427 9.22596 1.74453C9.38764 1.70722 9.4747 1.54554 9.43739 1.38386C9.40008 1.24706 9.27571 1.16 9.1389 1.16C9.11403 1.16 9.08916 1.16 9.06428 1.16ZM11.7879 1.96839C11.7879 2.17981 11.962 2.36636 12.1859 2.36636C12.3973 2.36636 12.5839 2.17981 12.5839 1.96839C12.5839 1.74452 12.3973 1.57041 12.1859 1.57041C11.962 1.57041 11.7879 1.74452 11.7879 1.96839ZM13.6783 2.05545C13.641 2.27931 13.7778 2.47829 13.9892 2.5156C14.2131 2.55291 14.4121 2.41611 14.4494 2.20469C14.4867 1.98082 14.3499 1.78184 14.1385 1.74453C14.1136 1.73209 14.0887 1.73209 14.0639 1.73209C13.8773 1.73209 13.7032 1.86889 13.6783 2.05545ZM10.2333 1.74453C10.0219 1.78184 9.87267 1.98082 9.90998 2.20469C9.94729 2.41611 10.1587 2.55291 10.3701 2.5156C10.5816 2.47829 10.7308 2.27931 10.6935 2.05545C10.6562 1.86889 10.4945 1.73209 10.308 1.73209C10.2831 1.73209 10.2582 1.73209 10.2333 1.74453ZM16.8746 2.03057C16.7999 2.17981 16.8621 2.36636 17.0114 2.42855C17.173 2.50317 17.3472 2.44098 17.4218 2.29174C17.484 2.13006 17.4218 1.95595 17.2725 1.88133C17.2352 1.86889 17.1855 1.85646 17.1482 1.85646C17.0362 1.85646 16.9243 1.91864 16.8746 2.03057ZM7.08684 1.88133C6.9376 1.95595 6.87542 2.13006 6.95004 2.29174C7.01222 2.44098 7.19877 2.50317 7.34802 2.42855C7.49726 2.36636 7.55944 2.17981 7.49726 2.03057C7.44751 1.91864 7.33558 1.85646 7.22365 1.85646C7.1739 1.85646 7.13659 1.86889 7.08684 1.88133ZM15.5189 2.47829C15.4443 2.68972 15.5438 2.91358 15.7552 2.9882C15.9542 3.06282 16.1905 2.96333 16.2652 2.7519C16.3398 2.55292 16.2278 2.31662 16.0289 2.24199C15.9791 2.22956 15.9294 2.21712 15.8921 2.21712C15.7304 2.21712 15.5687 2.31662 15.5189 2.47829ZM8.34295 2.24199C8.13153 2.31662 8.03204 2.55292 8.10666 2.7519C8.18128 2.96333 8.40514 3.06282 8.61656 2.9882C8.81555 2.91358 8.92748 2.68972 8.85286 2.47829C8.79068 2.31662 8.64144 2.21712 8.47976 2.21712C8.43001 2.21712 8.3927 2.22956 8.34295 2.24199ZM12.5839 2.91358C12.559 3.17475 12.7456 3.39861 13.0067 3.42348C13.2555 3.44836 13.4793 3.24937 13.5042 3.00064C13.5291 2.73947 13.3425 2.5156 13.0813 2.49073H13.044C12.8077 2.49073 12.5963 2.67728 12.5839 2.91358ZM11.278 2.49073C11.0293 2.5156 10.8427 2.73947 10.8552 3.00064C10.88 3.24937 11.1039 3.44836 11.3651 3.42348C11.6138 3.39861 11.8004 3.17475 11.7879 2.91358C11.7631 2.67728 11.5641 2.49073 11.3278 2.49073C11.3029 2.49073 11.278 2.49073 11.278 2.49073ZM14.2877 3.13744C14.2255 3.38618 14.3748 3.63491 14.6235 3.70953C14.8722 3.77171 15.121 3.62247 15.1832 3.37374C15.2578 3.125 15.1085 2.87627 14.8598 2.81409C14.8225 2.80165 14.7727 2.78921 14.7354 2.78921C14.5364 2.78921 14.3499 2.92602 14.2877 3.13744ZM9.49957 2.81409C9.26327 2.87627 9.11403 3.125 9.17622 3.37374C9.2384 3.62247 9.49957 3.77171 9.7483 3.70953C9.99704 3.63491 10.1463 3.38618 10.0717 3.13744C10.0219 2.92602 9.83536 2.78921 9.62394 2.78921C9.58663 2.78921 9.54932 2.80165 9.49957 2.81409ZM18.6654 3.01307C18.5784 3.14988 18.6033 3.33643 18.7401 3.42348C18.8769 3.52298 19.0634 3.48567 19.1629 3.34887C19.2624 3.21206 19.2251 3.02551 19.0883 2.93845C19.0385 2.90114 18.9764 2.87627 18.9142 2.87627C18.8271 2.87627 18.7276 2.92602 18.6654 3.01307ZM5.27108 2.93845C5.13428 3.02551 5.1094 3.21206 5.19646 3.34887C5.29595 3.48567 5.4825 3.52298 5.61931 3.42348C5.75611 3.33643 5.79342 3.14988 5.69393 3.01307C5.63175 2.92602 5.54469 2.87627 5.44519 2.87627C5.38301 2.87627 5.33326 2.90114 5.27108 2.93845ZM17.2601 3.2245C17.1482 3.41105 17.2103 3.64735 17.3969 3.75928C17.5959 3.87121 17.8322 3.80902 17.9441 3.61004C18.056 3.42349 17.9814 3.18719 17.7949 3.07526C17.7327 3.03795 17.6705 3.02551 17.5959 3.02551C17.4591 3.02551 17.3347 3.08769 17.2601 3.2245ZM6.5645 3.07526C6.37795 3.18719 6.31577 3.42349 6.4277 3.61004C6.52719 3.80902 6.77593 3.87121 6.96248 3.75928C7.14903 3.64735 7.22365 3.41105 7.11172 3.2245C7.0371 3.08769 6.90029 3.02551 6.76349 3.02551C6.7013 3.02551 6.62668 3.03795 6.5645 3.07526ZM15.9418 3.64735C15.8299 3.88365 15.9294 4.15725 16.1657 4.26918C16.3895 4.36868 16.6756 4.26918 16.7751 4.04532C16.887 3.80902 16.7875 3.53542 16.5512 3.42348C16.489 3.39861 16.4268 3.38618 16.3522 3.38618C16.1781 3.38618 16.0164 3.48567 15.9418 3.64735ZM7.80817 3.42348C7.58431 3.53542 7.47238 3.80902 7.58431 4.04532C7.69624 4.26918 7.96985 4.36868 8.20615 4.26918C8.43001 4.15725 8.54194 3.88365 8.43001 3.64735C8.35539 3.48567 8.18128 3.38618 8.00716 3.38618C7.94498 3.38618 7.87036 3.39861 7.80817 3.42348ZM11.6387 3.92095C11.6387 4.23187 11.8874 4.46817 12.1859 4.46817C12.4844 4.46817 12.7207 4.23187 12.7207 3.92095C12.7207 3.62247 12.4844 3.38618 12.1859 3.38618C11.8874 3.38618 11.6387 3.62247 11.6387 3.92095ZM13.1933 3.9707C13.1311 4.25675 13.3301 4.54279 13.6286 4.59254C13.927 4.64229 14.2007 4.45573 14.2628 4.15725C14.3126 3.85877 14.1136 3.58516 13.8151 3.52298C13.7902 3.52298 13.7529 3.52298 13.7281 3.52298C13.4669 3.52298 13.2306 3.70953 13.1933 3.9707ZM10.5443 3.52298C10.2582 3.58516 10.0592 3.85877 10.109 4.15725C10.1587 4.45573 10.4448 4.64229 10.7308 4.59254C11.0293 4.54279 11.2283 4.25675 11.1785 3.9707C11.1288 3.70953 10.9049 3.52298 10.6437 3.52298C10.6064 3.52298 10.5816 3.52298 10.5443 3.52298ZM14.7106 4.28162C14.5986 4.55523 14.7479 4.86615 15.0339 4.96564C15.3075 5.07757 15.6184 4.92833 15.7304 4.64229C15.8299 4.36868 15.6806 4.05776 15.407 3.95827C15.3448 3.93339 15.2827 3.92095 15.2205 3.92095C14.9966 3.92095 14.7852 4.05776 14.7106 4.28162ZM8.96479 3.95827C8.67875 4.05776 8.54194 4.36868 8.64144 4.64229C8.74093 4.92833 9.05185 5.07757 9.33789 4.96564C9.6115 4.86615 9.76074 4.55523 9.66125 4.28162C9.57419 4.05776 9.3752 3.92095 9.15134 3.92095C9.08916 3.92095 9.02697 3.93339 8.96479 3.95827ZM18.8396 4.24431C18.7028 4.41842 18.7276 4.66716 18.8893 4.80396C19.0634 4.94077 19.3122 4.92833 19.449 4.75422C19.5858 4.59254 19.5733 4.33137 19.3992 4.19456C19.3246 4.13238 19.2375 4.10751 19.1505 4.10751C19.0385 4.10751 18.9266 4.15725 18.8396 4.24431ZM4.96016 4.19456C4.79848 4.33137 4.77361 4.59254 4.91041 4.75422C5.05965 4.92833 5.30839 4.94077 5.47007 4.80396C5.64418 4.66716 5.66905 4.41842 5.51981 4.24431C5.44519 4.15725 5.33326 4.10751 5.22133 4.10751C5.13428 4.10751 5.03478 4.13238 4.96016 4.19456ZM20.2698 4.28162C20.1579 4.40599 20.1579 4.59254 20.2698 4.71691C20.3942 4.82884 20.5807 4.82884 20.6926 4.71691C20.817 4.59254 20.817 4.40599 20.6926 4.28162C20.6429 4.21944 20.5558 4.19456 20.4812 4.19456C20.4066 4.19456 20.332 4.21944 20.2698 4.28162ZM3.66674 4.28162C3.54237 4.40599 3.54237 4.59254 3.66674 4.71691C3.79111 4.82884 3.97766 4.82884 4.08959 4.71691C4.21396 4.59254 4.21396 4.40599 4.08959 4.28162C4.03984 4.21944 3.95279 4.19456 3.87816 4.19456C3.80354 4.19456 3.72892 4.21944 3.66674 4.28162ZM17.4715 4.4433C17.3223 4.65472 17.372 4.94077 17.5834 5.09001C17.7949 5.23925 18.0809 5.17706 18.2302 4.97808C18.3794 4.76665 18.3297 4.46817 18.1182 4.33137C18.0312 4.26918 17.9441 4.24431 17.8446 4.24431C17.7078 4.24431 17.5586 4.30649 17.4715 4.4433ZM6.25358 4.33137C6.04216 4.46817 5.99241 4.76665 6.14165 4.97808C6.27846 5.17706 6.57694 5.23925 6.78836 5.09001C6.98735 4.94077 7.04953 4.65472 6.90029 4.4433C6.8008 4.30649 6.66399 4.24431 6.51475 4.24431C6.4277 4.24431 6.3282 4.26918 6.25358 4.33137ZM12.2978 5.04026C12.273 5.35118 12.4968 5.62479 12.8077 5.64966C13.1187 5.68697 13.3923 5.45067 13.4171 5.13976C13.442 4.82884 13.2182 4.56767 12.9072 4.53036H12.8575C12.5714 4.53036 12.3227 4.75422 12.2978 5.04026ZM11.4646 4.53036C11.1537 4.56767 10.9174 4.82884 10.9547 5.13976C10.9795 5.45067 11.2531 5.68697 11.5516 5.64966C11.8625 5.62479 12.0988 5.35118 12.0615 5.04026C12.0367 4.75422 11.8004 4.53036 11.5143 4.53036C11.4894 4.53036 11.4646 4.53036 11.4646 4.53036ZM16.1532 4.84127C16.004 5.10245 16.091 5.43824 16.3522 5.58748C16.6009 5.73672 16.9367 5.64966 17.086 5.38849C17.2352 5.12732 17.1482 4.79153 16.887 4.64229C16.7999 4.59254 16.7129 4.56767 16.6134 4.56767C16.4268 4.56767 16.2527 4.66716 16.1532 4.84127ZM7.47238 4.64229C7.21121 4.79153 7.12415 5.12732 7.27339 5.38849C7.42263 5.64966 7.75843 5.73672 8.0196 5.58748C8.28077 5.43824 8.36783 5.10245 8.21859 4.84127C8.11909 4.66716 7.93254 4.56767 7.74599 4.56767C7.65893 4.56767 7.55944 4.59254 7.47238 4.64229ZM13.641 5.1895C13.5664 5.48798 13.7405 5.78647 14.039 5.87352C14.3375 5.94814 14.6484 5.77403 14.723 5.47555C14.8101 5.17706 14.6235 4.86615 14.325 4.79152C14.2753 4.77909 14.2255 4.76665 14.1882 4.76665C13.9395 4.76665 13.7032 4.92833 13.641 5.1895ZM10.0343 4.79152C9.73587 4.86615 9.56175 5.17706 9.63637 5.47555C9.72343 5.77403 10.0219 5.94814 10.3204 5.87352C10.6313 5.78647 10.8054 5.48798 10.7184 5.1895C10.6562 4.92833 10.4323 4.76665 10.1836 4.76665C10.1338 4.76665 10.0841 4.77909 10.0343 4.79152ZM14.9469 5.55017C14.8101 5.83621 14.9344 6.172 15.208 6.29637C15.4941 6.43318 15.8299 6.30881 15.9542 6.02276C16.091 5.74916 15.9667 5.41336 15.6931 5.27656C15.606 5.25168 15.5314 5.22681 15.4568 5.22681C15.2453 5.22681 15.0339 5.35118 14.9469 5.55017ZM8.67875 5.27656C8.3927 5.41336 8.28077 5.74916 8.40514 6.02276C8.54194 6.30881 8.8653 6.43318 9.15134 6.29637C9.43739 6.172 9.54932 5.83621 9.42495 5.55017C9.32546 5.35118 9.12647 5.22681 8.91504 5.22681C8.84042 5.22681 8.75337 5.25168 8.67875 5.27656ZM18.8396 5.48799C18.653 5.6621 18.653 5.96058 18.8396 6.14713C19.0261 6.32125 19.3122 6.32125 19.4987 6.14713C19.6728 5.96058 19.6728 5.6621 19.4987 5.48799C19.3992 5.40093 19.2873 5.35118 19.1629 5.35118C19.051 5.35118 18.9266 5.40093 18.8396 5.48799ZM4.8731 5.48799C4.68655 5.6621 4.68655 5.96058 4.8731 6.14713C5.04722 6.32125 5.3457 6.32125 5.51981 6.14713C5.70636 5.96058 5.70636 5.6621 5.51981 5.48799C5.43276 5.40093 5.32083 5.35118 5.19646 5.35118C5.08453 5.35118 4.96016 5.40093 4.8731 5.48799ZM20.2325 5.53773C20.0584 5.67454 20.0335 5.92327 20.1827 6.08495C20.3195 6.25906 20.5683 6.28393 20.7299 6.13469C20.9041 5.99789 20.9289 5.74916 20.7797 5.57504C20.7051 5.48799 20.5931 5.43824 20.4812 5.43824C20.3942 5.43824 20.2947 5.47555 20.2325 5.53773ZM3.57968 5.57504C3.44288 5.74916 3.46775 5.99789 3.62943 6.13469C3.79111 6.28393 4.05228 6.25906 4.18908 6.08495C4.32589 5.92327 4.30101 5.67454 4.13934 5.53773C4.06472 5.47555 3.97766 5.43824 3.87816 5.43824C3.76623 5.43824 3.6543 5.48799 3.57968 5.57504ZM17.4715 5.64966C17.2725 5.88596 17.3098 6.22175 17.5337 6.42074C17.77 6.60729 18.1058 6.58241 18.3048 6.34612C18.4913 6.12226 18.4665 5.77403 18.2302 5.58748C18.1307 5.50042 18.0063 5.46311 17.8819 5.46311C17.7327 5.46311 17.571 5.52529 17.4715 5.64966ZM6.12921 5.58748C5.90535 5.77403 5.86804 6.12226 6.06703 6.34612C6.25358 6.58241 6.60181 6.60729 6.82567 6.42074C7.06197 6.22175 7.08684 5.88596 6.90029 5.64966C6.78836 5.52529 6.63912 5.46311 6.47744 5.46311C6.35308 5.46311 6.22871 5.50042 6.12921 5.58748ZM21.6254 5.81134C21.4886 5.91083 21.4513 6.09739 21.5508 6.23419C21.6503 6.37099 21.8368 6.4083 21.9736 6.30881C22.1104 6.22175 22.1477 6.02276 22.0482 5.88596C21.9861 5.81134 21.899 5.76159 21.7995 5.76159C21.7373 5.76159 21.6751 5.77403 21.6254 5.81134ZM2.32357 5.88596C2.22408 6.02276 2.24895 6.22175 2.38576 6.30881C2.52256 6.4083 2.72155 6.37099 2.80861 6.23419C2.9081 6.09739 2.87079 5.91083 2.73398 5.81134C2.68424 5.77403 2.62205 5.76159 2.55987 5.76159C2.47281 5.76159 2.37332 5.81134 2.32357 5.88596ZM16.0662 6.45805C16.0662 6.75653 16.3149 7.00527 16.6134 7.00527C16.9243 7.00527 17.173 6.75653 17.173 6.45805C17.173 6.14713 16.9243 5.8984 16.6134 5.8984C16.3149 5.8984 16.0662 6.14713 16.0662 6.45805ZM7.19877 6.45805C7.19877 6.75653 7.44751 7.00527 7.74599 7.00527C8.04447 7.00527 8.29321 6.75653 8.29321 6.45805C8.29321 6.14713 8.04447 5.8984 7.74599 5.8984C7.44751 5.8984 7.19877 6.14713 7.19877 6.45805ZM18.454 7.09232C18.454 7.39081 18.7028 7.63954 19.0012 7.63954C19.3122 7.63954 19.5485 7.39081 19.5485 7.09232C19.5485 6.78141 19.3122 6.53267 19.0012 6.53267C18.7028 6.53267 18.454 6.78141 18.454 7.09232ZM4.83579 7.09232C4.83579 7.39081 5.08453 7.63954 5.38301 7.63954C5.69393 7.63954 5.94266 7.39081 5.94266 7.09232C5.94266 6.78141 5.69393 6.53267 5.38301 6.53267C5.08453 6.53267 4.83579 6.78141 4.83579 7.09232ZM20.0086 6.75653C19.7972 6.89334 19.7474 7.19182 19.8967 7.40324C20.0459 7.61467 20.332 7.66441 20.5434 7.51517C20.7548 7.36593 20.8046 7.07989 20.6553 6.86846C20.5683 6.73166 20.419 6.66947 20.2698 6.66947C20.1827 6.66947 20.0832 6.69435 20.0086 6.75653ZM3.70405 6.86846C3.56725 7.07989 3.61699 7.36593 3.82842 7.51517C4.03984 7.66441 4.32589 7.61467 4.47513 7.40324C4.61193 7.19182 4.56219 6.89334 4.35076 6.75653C4.27614 6.69435 4.17665 6.66947 4.08959 6.66947C3.94035 6.66947 3.80354 6.73166 3.70405 6.86846ZM17.2725 7.21669C17.2725 7.45299 17.4591 7.63954 17.6954 7.63954C17.9317 7.63954 18.1182 7.45299 18.1182 7.21669C18.1182 6.98039 17.9317 6.79384 17.6954 6.79384C17.4591 6.79384 17.2725 6.98039 17.2725 7.21669ZM6.25358 7.21669C6.25358 7.45299 6.44013 7.63954 6.66399 7.63954C6.90029 7.63954 7.08684 7.45299 7.08684 7.21669C7.08684 6.98039 6.90029 6.79384 6.66399 6.79384C6.44013 6.79384 6.25358 6.98039 6.25358 7.21669ZM21.3642 7.04258C21.1777 7.15451 21.1155 7.39081 21.2274 7.57736C21.3269 7.76391 21.5756 7.83853 21.7622 7.7266C21.9487 7.61467 22.0109 7.37837 21.9114 7.17938C21.8368 7.05501 21.7 6.98039 21.5632 6.98039C21.501 6.98039 21.4264 7.00527 21.3642 7.04258ZM2.46038 7.17938C2.34845 7.37837 2.41063 7.61467 2.59718 7.7266C2.79617 7.83853 3.03247 7.76391 3.1444 7.57736C3.25633 7.39081 3.19414 7.15451 2.99516 7.04258C2.93297 7.00527 2.87079 6.98039 2.79617 6.98039C2.65936 6.98039 2.535 7.05501 2.46038 7.17938ZM22.6949 7.56492C22.5457 7.63954 22.4835 7.81365 22.5457 7.96289C22.6203 8.11213 22.7944 8.18676 22.9561 8.11214C23.1054 8.03752 23.1675 7.8634 23.0929 7.71416C23.0432 7.60223 22.9312 7.54005 22.8193 7.54005C22.782 7.54005 22.7323 7.54004 22.6949 7.56492ZM1.26645 7.71416C1.19183 7.8634 1.26645 8.03752 1.41569 8.11214C1.56493 8.18676 1.75148 8.11213 1.81367 7.96289C1.88829 7.81365 1.8261 7.63954 1.66443 7.56492C1.62712 7.54004 1.58981 7.54005 1.54006 7.54005C1.42813 7.54005 1.3162 7.60223 1.26645 7.71416ZM19.5982 7.88827C19.337 8.03751 19.25 8.37331 19.3992 8.63448C19.5485 8.89565 19.8718 8.98271 20.133 8.83347C20.3942 8.68423 20.4812 8.34843 20.332 8.08726C20.2325 7.91315 20.0584 7.82609 19.8594 7.82609C19.7723 7.82609 19.6853 7.83853 19.5982 7.88827ZM4.0274 8.08726C3.87816 8.34843 3.96522 8.68423 4.22639 8.83347C4.48756 8.98271 4.82336 8.89565 4.9726 8.63448C5.12184 8.37331 5.03478 8.03751 4.77361 7.88827C4.68655 7.83853 4.58706 7.82609 4.5 7.82609C4.31345 7.82609 4.1269 7.91315 4.0274 8.08726ZM18.2053 8.26138C18.2053 8.48524 18.3918 8.68423 18.6281 8.68423C18.8644 8.68423 19.051 8.48524 19.051 8.26138C19.051 8.02508 18.8644 7.83853 18.6281 7.83853C18.3918 7.83853 18.2053 8.02508 18.2053 8.26138ZM5.30839 8.26138C5.30839 8.48524 5.50738 8.68423 5.73124 8.68423C5.96754 8.68423 6.15409 8.48524 6.15409 8.26138C6.15409 8.02508 5.96754 7.83853 5.73124 7.83853C5.50738 7.83853 5.30839 8.02508 5.30839 8.26138ZM20.9414 8.19919C20.7051 8.31112 20.6056 8.58473 20.7175 8.82103C20.817 9.05733 21.103 9.15682 21.3269 9.04489C21.5632 8.93296 21.6627 8.65935 21.5508 8.42305C21.4761 8.26138 21.3145 8.16188 21.1404 8.16188C21.0657 8.16188 21.0036 8.17432 20.9414 8.19919ZM2.80861 8.42305C2.69667 8.65935 2.79617 8.93296 3.03247 9.04489C3.26876 9.15682 3.54237 9.05733 3.6543 8.82103C3.7538 8.58473 3.6543 8.31112 3.43044 8.19919C3.36826 8.17432 3.29364 8.16188 3.23145 8.16188C3.05734 8.16188 2.88323 8.26138 2.80861 8.42305ZM22.2224 8.72154C22.0234 8.79616 21.9114 9.02002 21.9861 9.23144C22.0607 9.43043 22.297 9.54236 22.496 9.46774C22.7074 9.39312 22.8069 9.16926 22.7323 8.95783C22.6701 8.79615 22.5208 8.69666 22.3592 8.69666C22.3218 8.69666 22.2721 8.7091 22.2224 8.72154ZM1.62712 8.95783C1.55249 9.16926 1.66442 9.39312 1.86341 9.46774C2.07484 9.54236 2.2987 9.43043 2.37332 9.23144C2.44794 9.02002 2.34845 8.79616 2.13702 8.72154C2.08727 8.7091 2.04996 8.69666 2.00022 8.69666C1.83854 8.69666 1.6893 8.79615 1.62712 8.95783ZM18.6654 9.52992C18.6654 9.8284 18.9142 10.0771 19.2251 10.0771C19.5236 10.0771 19.7723 9.8284 19.7723 9.52992C19.7723 9.23144 19.5236 8.98271 19.2251 8.98271C18.9142 8.98271 18.6654 9.23144 18.6654 9.52992ZM4.59949 9.52992C4.59949 9.8284 4.84823 10.0771 5.14671 10.0771C5.44519 10.0771 5.69393 9.8284 5.69393 9.52992C5.69393 9.23144 5.44519 8.98271 5.14671 8.98271C4.84823 8.98271 4.59949 9.23144 4.59949 9.52992ZM20.332 9.25632C20.0584 9.35581 19.9091 9.66673 20.0086 9.95277C20.1081 10.2264 20.419 10.3756 20.7051 10.2761C20.9911 10.1766 21.1279 9.86572 21.0284 9.57967C20.9538 9.35581 20.7424 9.21901 20.5185 9.21901C20.4563 9.21901 20.3942 9.23144 20.332 9.25632ZM3.33095 9.57967C3.23145 9.86572 3.38069 10.1766 3.6543 10.2761C3.94035 10.3756 4.25127 10.2264 4.35076 9.95277C4.46269 9.66673 4.31345 9.35581 4.0274 9.25632C3.96522 9.23144 3.90304 9.21901 3.84085 9.21901C3.62943 9.21901 3.418 9.35581 3.33095 9.57967ZM23.4412 9.46774C23.2795 9.50505 23.1924 9.67916 23.2297 9.84084C23.2795 10.0025 23.4412 10.0896 23.6028 10.0523C23.7645 10.015 23.864 9.84084 23.8143 9.67916C23.7769 9.54236 23.6526 9.4553 23.5282 9.4553C23.4909 9.4553 23.466 9.4553 23.4412 9.46774ZM0.545119 9.67916C0.507808 9.84084 0.607302 10.015 0.76898 10.0523C0.930658 10.0896 1.09234 10.0025 1.12965 9.84084C1.17939 9.67916 1.0799 9.50505 0.91822 9.46774C0.893347 9.4553 0.868474 9.4553 0.843601 9.4553C0.706797 9.4553 0.582429 9.54236 0.545119 9.67916ZM21.6005 9.7911C21.3518 9.86572 21.215 10.1145 21.2772 10.3632C21.3393 10.6119 21.6005 10.7612 21.8492 10.6865C22.098 10.6244 22.2348 10.3756 22.1726 10.1269C22.1229 9.91546 21.9239 9.77866 21.7249 9.77866C21.6876 9.77866 21.6503 9.77866 21.6005 9.7911ZM2.18677 10.1269C2.12458 10.3756 2.27383 10.6244 2.52256 10.6865C2.77129 10.7612 3.02003 10.6119 3.09465 10.3632C3.15683 10.1145 3.00759 9.86572 2.75886 9.7911C2.72155 9.77866 2.68424 9.77866 2.63449 9.77866C2.4355 9.77866 2.24895 9.91546 2.18677 10.1269ZM19.5111 10.2513C19.2127 10.3383 19.0261 10.6492 19.1132 10.9477C19.1878 11.2462 19.4987 11.4203 19.7972 11.3333C20.0957 11.2586 20.2698 10.9477 20.1952 10.6492C20.133 10.4005 19.8967 10.2388 19.6479 10.2388C19.6106 10.2388 19.5609 10.2388 19.5111 10.2513ZM4.17665 10.6492C4.08959 10.9477 4.2637 11.2586 4.56218 11.3333C4.86067 11.4203 5.17158 11.2462 5.25864 10.9477C5.33326 10.6492 5.15915 10.3383 4.86067 10.2513C4.81092 10.2388 4.76117 10.2388 4.71143 10.2388C4.46269 10.2388 4.23883 10.4005 4.17665 10.6492ZM22.782 10.5249C22.5706 10.5622 22.4213 10.7736 22.4586 10.985C22.496 11.1964 22.7074 11.3457 22.9188 11.3084C23.1302 11.2711 23.2795 11.0596 23.2422 10.8482C23.2049 10.6617 23.0432 10.5249 22.8566 10.5249C22.8318 10.5249 22.8069 10.5249 22.782 10.5249ZM1.12965 10.8482C1.0799 11.0596 1.22914 11.2711 1.44056 11.3084C1.66443 11.3457 1.86341 11.1964 1.90072 10.985C1.93803 10.7736 1.80123 10.5622 1.57737 10.5249C1.57737 10.5249 1.54006 10.5249 1.51518 10.5249C1.32863 10.5249 1.15452 10.6617 1.12965 10.8482ZM20.8294 10.7238C20.531 10.7736 20.332 11.0596 20.3817 11.3581C20.4315 11.6442 20.7175 11.8432 21.016 11.7934C21.3145 11.7437 21.501 11.4576 21.4513 11.1591C21.4015 10.898 21.1777 10.7114 20.9165 10.7114C20.8916 10.7114 20.8543 10.7238 20.8294 10.7238ZM2.9081 11.1591C2.85835 11.4576 3.05734 11.7437 3.35582 11.7934C3.64187 11.8432 3.92791 11.6442 3.97766 11.3581C4.02741 11.0596 3.84085 10.7736 3.54237 10.7238C3.50506 10.7238 3.48019 10.7114 3.44288 10.7114C3.18171 10.7114 2.95785 10.898 2.9081 11.1591ZM23.8516 11.4701C23.6899 11.4949 23.5655 11.6317 23.578 11.8058C23.5904 11.9675 23.7396 12.0919 23.9013 12.0795C24.0754 12.067 24.1998 11.9178 24.1749 11.7437C24.1625 11.5944 24.0381 11.4701 23.8764 11.4701H23.8516ZM0.184453 11.7437C0.172016 11.9178 0.296384 12.067 0.458062 12.0795C0.632176 12.0919 0.768979 11.9675 0.793853 11.8058C0.80629 11.6317 0.681922 11.4949 0.507808 11.4701H0.482935C0.333694 11.4701 0.196889 11.5944 0.184453 11.7437ZM21.9861 11.4701C21.7249 11.4949 21.5383 11.7188 21.5632 11.98C21.5881 12.2287 21.8119 12.4277 22.0607 12.4028C22.3218 12.3779 22.5084 12.1541 22.4835 11.8929C22.4586 11.6566 22.2597 11.4701 22.0234 11.4701H21.9861ZM1.87585 11.8929C1.85098 12.1541 2.04996 12.3779 2.2987 12.4028C2.55987 12.4277 2.78373 12.2287 2.8086 11.98C2.82104 11.7188 2.63449 11.4949 2.38576 11.4701H2.33601C2.09971 11.4701 1.90072 11.6566 1.87585 11.8929ZM19.8345 11.5695C19.5236 11.5944 19.2997 11.868 19.3246 12.1789C19.3495 12.4774 19.6231 12.7137 19.934 12.6889C20.2449 12.6515 20.4688 12.3904 20.4439 12.0795C20.419 11.781 20.1703 11.5695 19.8842 11.5695C19.8842 11.5695 19.8594 11.5695 19.8345 11.5695ZM3.91547 12.0795C3.8906 12.3904 4.1269 12.6515 4.42538 12.6889C4.7363 12.7137 5.00991 12.4774 5.03478 12.1789C5.05965 11.868 4.83579 11.5944 4.52487 11.5695C4.52487 11.5695 4.5 11.5695 4.47513 11.5695C4.18908 11.5695 3.94035 11.781 3.91547 12.0795ZM20.5061 12.8008C20.5061 13.0993 20.7548 13.3356 21.0533 13.3356C21.3518 13.3356 21.6005 13.0993 21.6005 12.8008C21.6005 12.5023 21.3518 12.2536 21.0533 12.2536C20.7548 12.2536 20.5061 12.5023 20.5061 12.8008ZM2.77129 12.8008C2.77129 13.0993 3.00759 13.3356 3.30607 13.3356C3.60456 13.3356 3.85329 13.0993 3.85329 12.8008C3.85329 12.5023 3.60456 12.2536 3.30607 12.2536C3.00759 12.2536 2.77129 12.5023 2.77129 12.8008ZM22.6203 12.8008C22.6203 13.0122 22.7944 13.1988 23.0183 13.1988C23.2297 13.1988 23.4163 13.0122 23.4163 12.8008C23.4163 12.5769 23.2297 12.4028 23.0183 12.4028C22.7944 12.4028 22.6203 12.5769 22.6203 12.8008ZM0.955531 12.8008C0.955531 13.0122 1.12965 13.1988 1.35351 13.1988C1.56493 13.1988 1.73904 13.0122 1.73904 12.8008C1.73904 12.5769 1.56493 12.4028 1.35351 12.4028C1.12965 12.4028 0.955531 12.5769 0.955531 12.8008ZM19.3246 13.4226C19.2997 13.7335 19.5236 14.0071 19.8345 14.032C20.1454 14.0569 20.419 13.833 20.4439 13.5221C20.4688 13.2112 20.2449 12.9376 19.934 12.9127H19.8842C19.5982 12.9127 19.3495 13.1366 19.3246 13.4226ZM4.42538 12.9127C4.1269 12.9376 3.8906 13.2112 3.91547 13.5221C3.94035 13.833 4.21396 14.0569 4.52487 14.032C4.83579 14.0071 5.05965 13.7335 5.03478 13.4226C5.00991 13.1366 4.76117 12.9127 4.47513 12.9127C4.47513 12.9127 4.45025 12.9127 4.42538 12.9127ZM21.5632 13.6216C21.5383 13.8703 21.7249 14.0942 21.9861 14.1191C22.2348 14.144 22.4586 13.9574 22.4835 13.6962C22.5084 13.4475 22.3218 13.2236 22.0607 13.1988H22.0234C21.7871 13.1988 21.5881 13.3729 21.5632 13.6216ZM2.2987 13.1988C2.04996 13.2236 1.85098 13.4475 1.87585 13.6962C1.90072 13.9574 2.12458 14.144 2.38576 14.1191C2.63449 14.0942 2.82104 13.8703 2.8086 13.6216C2.78373 13.3729 2.58474 13.1988 2.33601 13.1988H2.2987ZM23.578 13.7957C23.5655 13.9574 23.6899 14.1066 23.8516 14.1191C24.0132 14.144 24.1625 14.0196 24.1749 13.8455C24.1998 13.6838 24.0754 13.5346 23.9013 13.5221H23.8764C23.7272 13.5221 23.5904 13.634 23.578 13.7957ZM0.458061 13.5221C0.296384 13.5346 0.172016 13.6838 0.184452 13.8455C0.196889 14.0196 0.34613 14.144 0.507808 14.1191C0.681922 14.1066 0.806289 13.9574 0.793853 13.7957C0.768979 13.634 0.644612 13.5221 0.482935 13.5221H0.458061ZM20.3817 14.2434C20.332 14.5419 20.531 14.8155 20.8294 14.8777C21.1155 14.9275 21.4015 14.7285 21.4513 14.43C21.501 14.144 21.3145 13.8579 21.016 13.8082C20.9787 13.7957 20.9538 13.7957 20.9165 13.7957C20.6553 13.7957 20.4315 13.9823 20.3817 14.2434ZM3.35582 13.8082C3.05734 13.8579 2.85835 14.144 2.9081 14.43C2.95785 14.7285 3.24389 14.9275 3.54237 14.8777C3.84085 14.8155 4.02741 14.5419 3.97766 14.2434C3.92791 13.9823 3.70405 13.7957 3.44288 13.7957C3.41801 13.7957 3.38069 13.7957 3.35582 13.8082ZM19.1132 14.6539C19.0261 14.9523 19.2127 15.2633 19.5111 15.3379C19.8096 15.4249 20.1081 15.2508 20.1952 14.9399C20.2698 14.6414 20.0957 14.3429 19.7972 14.2559C19.7474 14.2434 19.6977 14.2434 19.6479 14.2434C19.3992 14.2434 19.1753 14.4051 19.1132 14.6539ZM4.56218 14.2559C4.2637 14.3429 4.08959 14.6414 4.17665 14.9399C4.25127 15.2508 4.56218 15.4249 4.86067 15.3379C5.15915 15.2633 5.33326 14.9523 5.25864 14.6539C5.18402 14.4051 4.96016 14.2434 4.71143 14.2434C4.66168 14.2434 4.61193 14.2434 4.56218 14.2559ZM22.4586 14.6165C22.4213 14.828 22.5706 15.027 22.782 15.0643C22.9934 15.114 23.2049 14.9648 23.2422 14.7534C23.2795 14.5295 23.1302 14.3305 22.9188 14.2932C22.8939 14.2808 22.8566 14.2808 22.8566 14.2808C22.6576 14.2808 22.496 14.4176 22.4586 14.6165ZM1.44056 14.2932C1.22914 14.3305 1.0799 14.5295 1.12965 14.7534C1.16696 14.9648 1.36594 15.114 1.57737 15.0643C1.80123 15.027 1.93803 14.828 1.90072 14.6165C1.87585 14.4176 1.70173 14.2808 1.51518 14.2808C1.49031 14.2808 1.46544 14.2808 1.44056 14.2932ZM21.2772 15.2384C21.215 15.4871 21.3518 15.7359 21.6005 15.798C21.8492 15.8727 22.1104 15.7234 22.1726 15.4747C22.2348 15.2259 22.098 14.9772 21.8492 14.9026C21.7995 14.9026 21.7622 14.8902 21.7249 14.8902C21.5135 14.8902 21.3269 15.027 21.2772 15.2384ZM2.52256 14.9026C2.27383 14.9772 2.12458 15.2259 2.18677 15.4747C2.26139 15.7234 2.51012 15.8727 2.75886 15.798C3.00759 15.7359 3.15683 15.4871 3.09465 15.2384C3.03247 15.027 2.84591 14.8902 2.64693 14.8902C2.59718 14.8902 2.55987 14.9026 2.52256 14.9026ZM20.0086 15.6488C19.9091 15.9348 20.0584 16.2458 20.332 16.3453C20.618 16.4447 20.9289 16.2955 21.0284 16.0219C21.1279 15.7359 20.9911 15.4249 20.7051 15.3254C20.6429 15.3006 20.5807 15.2881 20.5185 15.2881C20.2947 15.2881 20.0957 15.4249 20.0086 15.6488ZM3.6543 15.3254C3.38069 15.4249 3.23145 15.7359 3.33095 16.0219C3.44288 16.2955 3.7538 16.4447 4.0274 16.3453C4.31345 16.2458 4.46269 15.9348 4.35076 15.6488C4.27614 15.4249 4.06471 15.2881 3.84085 15.2881C3.77867 15.2881 3.71649 15.3006 3.6543 15.3254ZM18.6779 15.8353C18.5535 16.109 18.6779 16.4447 18.9515 16.5816C19.2375 16.7059 19.5733 16.5816 19.6977 16.3079C19.8345 16.0219 19.7101 15.6861 19.4241 15.5617C19.3495 15.5244 19.2748 15.4996 19.1878 15.4996C18.9764 15.4996 18.7774 15.6239 18.6779 15.8353ZM4.93529 15.5617C4.66168 15.6861 4.53731 16.0219 4.66168 16.3079C4.79848 16.5816 5.13427 16.7059 5.40788 16.5816C5.69393 16.4447 5.81829 16.109 5.68149 15.8353C5.582 15.6239 5.38301 15.4996 5.17158 15.4996C5.09696 15.4996 5.00991 15.5244 4.93529 15.5617ZM23.2297 15.7607C23.1924 15.9224 23.2795 16.0841 23.4412 16.1338C23.6028 16.1711 23.7769 16.0716 23.8143 15.91C23.864 15.7483 23.7645 15.5866 23.6028 15.5493C23.578 15.5369 23.5531 15.5369 23.5282 15.5369C23.3914 15.5369 23.267 15.6239 23.2297 15.7607ZM0.768979 15.5493C0.607302 15.5866 0.507808 15.7483 0.545118 15.91C0.594865 16.0716 0.756542 16.1711 0.91822 16.1338C1.0799 16.0841 1.17939 15.9224 1.12965 15.7607C1.09234 15.6239 0.980404 15.5369 0.8436 15.5369C0.818727 15.5369 0.793853 15.5369 0.768979 15.5493ZM21.9861 16.3701C21.9114 16.5691 22.0234 16.8054 22.2223 16.88C22.4338 16.9547 22.6576 16.8427 22.7323 16.6437C22.8069 16.4323 22.7074 16.2085 22.496 16.1338C22.4586 16.1214 22.4089 16.109 22.3592 16.109C22.1975 16.109 22.0482 16.2085 21.9861 16.3701ZM1.86341 16.1338C1.66442 16.2085 1.55249 16.4323 1.62711 16.6437C1.70173 16.8427 1.93803 16.9547 2.13702 16.88C2.34844 16.8054 2.44794 16.5691 2.37332 16.3701C2.31113 16.2085 2.16189 16.109 2.00022 16.109C1.96291 16.109 1.91316 16.1214 1.86341 16.1338ZM20.7175 16.7805C20.6056 17.0044 20.7051 17.2904 20.9414 17.3899C21.1777 17.5019 21.4513 17.4024 21.5508 17.1661C21.6627 16.9422 21.5632 16.6562 21.3269 16.5567C21.2647 16.5194 21.2025 16.5069 21.1404 16.5069C20.9662 16.5069 20.7921 16.6064 20.7175 16.7805ZM3.03247 16.5567C2.79617 16.6562 2.69667 16.9422 2.8086 17.1661C2.92054 17.4024 3.19414 17.5019 3.43044 17.3899C3.6543 17.2904 3.7538 17.0044 3.6543 16.7805C3.56725 16.6064 3.40557 16.5069 3.23145 16.5069C3.16927 16.5069 3.09465 16.5194 3.03247 16.5567ZM18.056 16.9173C17.8819 17.1661 17.9441 17.5143 18.1928 17.6884C18.454 17.875 18.8022 17.8128 18.9764 17.5516C19.1505 17.3029 19.0883 16.9547 18.8396 16.7805C18.7401 16.7059 18.6281 16.6686 18.5162 16.6686C18.3421 16.6686 18.168 16.7557 18.056 16.9173ZM5.51981 16.7805C5.27108 16.9547 5.20889 17.3029 5.38301 17.5516C5.56956 17.8128 5.91779 17.875 6.16652 17.6884C6.4277 17.5143 6.48988 17.1661 6.30333 16.9173C6.20383 16.7557 6.02972 16.6686 5.84317 16.6686C5.73124 16.6686 5.61931 16.7059 5.51981 16.7805ZM19.3992 16.9671C19.25 17.2283 19.337 17.5516 19.5982 17.7009C19.8594 17.8501 20.1827 17.763 20.332 17.5019C20.4812 17.2407 20.3942 16.9173 20.133 16.7681C20.0459 16.7184 19.9589 16.6935 19.8718 16.6935C19.6728 16.6935 19.4987 16.793 19.3992 16.9671ZM4.22639 16.7681C3.96522 16.9173 3.87816 17.2407 4.0274 17.5019C4.17664 17.763 4.51244 17.8501 4.77361 17.7009C5.03478 17.5516 5.12184 17.2283 4.9726 16.9671C4.8731 16.793 4.68655 16.6935 4.5 16.6935C4.40051 16.6935 4.31345 16.7184 4.22639 16.7681ZM22.5457 17.6387C22.4835 17.7879 22.5457 17.962 22.6949 18.0367C22.8442 18.1113 23.0307 18.0367 23.0929 17.8874C23.1675 17.7382 23.1054 17.5516 22.9561 17.4894C22.9064 17.4646 22.8691 17.4521 22.8193 17.4521C22.7074 17.4521 22.5955 17.5267 22.5457 17.6387ZM1.41569 17.4894C1.26645 17.5516 1.19183 17.7382 1.26645 17.8874C1.34107 18.0367 1.51518 18.1113 1.66442 18.0367C1.8261 17.962 1.88829 17.7879 1.81366 17.6387C1.76392 17.5267 1.65199 17.4521 1.54006 17.4521C1.50275 17.4521 1.453 17.4646 1.41569 17.4894ZM17.2601 17.875C17.0362 18.0864 17.0362 18.4471 17.2601 18.6585C17.4715 18.8823 17.8322 18.8823 18.0436 18.6585C18.2675 18.4471 18.2675 18.0864 18.0436 17.875C17.9441 17.763 17.7949 17.7009 17.6456 17.7009C17.5088 17.7009 17.3596 17.763 17.2601 17.875ZM6.31576 17.875C6.0919 18.0864 6.0919 18.4471 6.31576 18.6585C6.53962 18.8823 6.88785 18.8823 7.11171 18.6585C7.33558 18.4471 7.33558 18.0864 7.11172 17.875C6.99978 17.763 6.86298 17.7009 6.71374 17.7009C6.5645 17.7009 6.42769 17.763 6.31576 17.875ZM21.2274 18.0118C21.1155 18.2108 21.1777 18.4471 21.3642 18.559C21.5508 18.6709 21.7995 18.6087 21.9114 18.4098C22.0109 18.2232 21.9487 17.9869 21.7622 17.875C21.7 17.8377 21.6378 17.8252 21.5632 17.8252C21.4264 17.8252 21.2896 17.8874 21.2274 18.0118ZM2.59718 17.875C2.41063 17.9869 2.34845 18.2232 2.46038 18.4098C2.57231 18.6087 2.8086 18.6709 2.99516 18.559C3.19414 18.4471 3.25633 18.2108 3.1444 18.0118C3.06978 17.8874 2.93297 17.8252 2.79617 17.8252C2.73398 17.8252 2.65936 17.8377 2.59718 17.875ZM18.5659 18.1486C18.367 18.3849 18.4043 18.7207 18.6281 18.9197C18.8644 19.1062 19.2002 19.0813 19.3992 18.845C19.5858 18.6212 19.5609 18.2729 19.3246 18.0864C19.2251 17.9993 19.1007 17.962 18.9764 17.962C18.8271 17.962 18.6654 18.0242 18.5659 18.1486ZM5.03478 18.0864C4.81092 18.2729 4.77361 18.6212 4.9726 18.845C5.15915 19.0813 5.50738 19.1062 5.73124 18.9197C5.96754 18.7207 5.99241 18.3849 5.80586 18.1486C5.69393 18.0242 5.54469 17.962 5.38301 17.962C5.25864 17.962 5.13427 17.9993 5.03478 18.0864ZM19.8967 18.1983C19.7474 18.4098 19.7972 18.6958 20.0086 18.845C20.22 18.9943 20.5061 18.9445 20.6553 18.7331C20.8046 18.5217 20.7548 18.2356 20.5434 18.0864C20.4563 18.0242 20.3693 17.9993 20.2698 17.9993C20.133 17.9993 19.9837 18.074 19.8967 18.1983ZM3.82842 18.0864C3.61699 18.2356 3.56724 18.5217 3.70405 18.7331C3.85329 18.9445 4.15177 18.9943 4.35076 18.845C4.56218 18.6958 4.61193 18.4098 4.47513 18.1983C4.37563 18.074 4.23883 17.9993 4.08959 17.9993C4.00253 17.9993 3.90304 18.0242 3.82842 18.0864ZM16.0662 19.1311C16.0662 19.442 16.3149 19.6783 16.6134 19.6783C16.9243 19.6783 17.173 19.442 17.173 19.1311C17.173 18.8326 16.9243 18.5839 16.6134 18.5839C16.3149 18.5839 16.0662 18.8326 16.0662 19.1311ZM7.19877 19.1311C7.19877 19.442 7.44751 19.6783 7.74599 19.6783C8.04447 19.6783 8.29321 19.442 8.29321 19.1311C8.29321 18.8326 8.04447 18.5839 7.74599 18.5839C7.44751 18.5839 7.19877 18.8326 7.19877 19.1311ZM17.5337 19.1808C17.3098 19.3674 17.2725 19.7156 17.4715 19.9395C17.6581 20.1758 18.0063 20.2006 18.2302 20.0141C18.4665 19.8151 18.4913 19.4793 18.3048 19.243C18.1928 19.1186 18.0436 19.0565 17.8819 19.0565C17.7576 19.0565 17.6332 19.0938 17.5337 19.1808ZM6.06703 19.243C5.86804 19.4793 5.90535 19.8151 6.12921 20.0141C6.36551 20.2006 6.7013 20.1758 6.90029 19.9395C7.08684 19.7156 7.06197 19.3674 6.82567 19.1808C6.72618 19.0938 6.60181 19.0565 6.47744 19.0565C6.3282 19.0565 6.16652 19.1186 6.06703 19.243ZM21.5508 19.3549C21.4513 19.4917 21.4886 19.6907 21.6254 19.7778C21.7622 19.8773 21.9487 19.84 22.0482 19.7032C22.1477 19.5664 22.1104 19.3798 21.9736 19.2803C21.9239 19.243 21.8617 19.2306 21.7995 19.2306C21.7 19.2306 21.6129 19.2803 21.5508 19.3549ZM2.38575 19.2803C2.24895 19.3798 2.22408 19.5664 2.32357 19.7032C2.41063 19.84 2.59718 19.8773 2.73398 19.7778C2.87079 19.6907 2.9081 19.4917 2.8086 19.3549C2.75886 19.2803 2.65936 19.2306 2.55987 19.2306C2.51012 19.2306 2.44794 19.243 2.38575 19.2803ZM18.8396 19.4544C18.653 19.641 18.653 19.927 18.8396 20.1136C19.0261 20.2877 19.3122 20.2877 19.4987 20.1136C19.6728 19.927 19.6728 19.641 19.4987 19.4544C19.3992 19.3674 19.2873 19.3176 19.1629 19.3176C19.051 19.3176 18.9266 19.3674 18.8396 19.4544ZM4.8731 19.4544C4.68655 19.641 4.68655 19.927 4.8731 20.1136C5.04722 20.2877 5.3457 20.2877 5.51981 20.1136C5.70636 19.927 5.70636 19.641 5.51981 19.4544C5.43276 19.3674 5.32082 19.3176 5.19646 19.3176C5.08453 19.3176 4.96016 19.3674 4.8731 19.4544ZM20.1827 19.5042C20.0335 19.6783 20.0584 19.927 20.2325 20.0638C20.3942 20.2006 20.6429 20.1882 20.7797 20.0141C20.9289 19.8524 20.9041 19.6037 20.7299 19.4544C20.6678 19.3923 20.5683 19.3674 20.4812 19.3674C20.3693 19.3674 20.2573 19.4171 20.1827 19.5042ZM3.62943 19.4544C3.46775 19.6037 3.44288 19.8524 3.57968 20.0141C3.71649 20.1882 3.96522 20.2006 4.13934 20.0638C4.30101 19.927 4.32589 19.6783 4.18908 19.5042C4.11446 19.4171 4.00253 19.3674 3.87816 19.3674C3.79111 19.3674 3.70405 19.3923 3.62943 19.4544ZM15.0339 19.9146C15.0339 20.1758 15.2329 20.3748 15.4941 20.3748C15.7428 20.3748 15.9542 20.1758 15.9542 19.9146C15.9542 19.6659 15.7428 19.4544 15.4941 19.4544C15.2329 19.4544 15.0339 19.6659 15.0339 19.9146ZM8.36783 19.9146C8.36782 20.1758 8.56681 20.3748 8.82798 20.3748C9.07672 20.3748 9.28814 20.1758 9.28814 19.9146C9.28814 19.6659 9.07672 19.4544 8.82798 19.4544C8.56681 19.4544 8.36783 19.6659 8.36783 19.9146ZM16.3522 20.0141C16.091 20.1633 16.004 20.4991 16.1532 20.7479C16.3025 21.009 16.6258 21.0961 16.887 20.9468C17.1482 20.7976 17.2352 20.4743 17.086 20.2131C16.9865 20.039 16.7999 19.9395 16.6134 19.9395C16.5263 19.9395 16.4268 19.9643 16.3522 20.0141ZM7.27339 20.2131C7.12415 20.4743 7.21121 20.7976 7.47238 20.9468C7.73355 21.0961 8.06934 21.009 8.21858 20.7479C8.36782 20.4991 8.28077 20.1633 8.0196 20.0141C7.93254 19.9643 7.83305 19.9395 7.74599 19.9395C7.55944 19.9395 7.37289 20.039 7.27339 20.2131ZM13.9395 20.5986C13.9395 20.7727 14.0763 20.922 14.2628 20.922C14.4494 20.922 14.5986 20.7727 14.5986 20.5986C14.5986 20.4121 14.4494 20.2628 14.2628 20.2628C14.0763 20.2628 13.9395 20.4121 13.9395 20.5986ZM9.76074 20.5986C9.76074 20.7727 9.90998 20.922 10.0841 20.922C10.2706 20.922 10.4199 20.7727 10.4199 20.5986C10.4199 20.4121 10.2706 20.2628 10.0841 20.2628C9.90998 20.2628 9.76074 20.4121 9.76074 20.5986ZM17.5834 20.5116C17.372 20.6608 17.3223 20.9468 17.4715 21.1583C17.6208 21.3697 17.9068 21.4194 18.1182 21.2702C18.3297 21.121 18.3794 20.8349 18.2302 20.6235C18.1431 20.4991 17.9939 20.4245 17.8446 20.4245C17.7576 20.4245 17.6581 20.4494 17.5834 20.5116ZM6.14165 20.6235C5.99241 20.8349 6.04216 21.121 6.25358 21.2702C6.465 21.4194 6.75105 21.3697 6.90029 21.1583C7.04953 20.9468 6.98735 20.6608 6.78836 20.5116C6.7013 20.4494 6.61425 20.4245 6.51475 20.4245C6.36551 20.4245 6.22871 20.4991 6.14165 20.6235ZM15.0339 20.6235C14.7479 20.723 14.5986 21.0339 14.7106 21.3199C14.8101 21.606 15.121 21.7428 15.407 21.6433C15.6806 21.5438 15.8299 21.2329 15.7304 20.9468C15.6433 20.7354 15.4443 20.5986 15.2205 20.5986C15.1583 20.5986 15.0961 20.5986 15.0339 20.6235ZM8.64143 20.9468C8.54194 21.2329 8.67874 21.5438 8.96479 21.6433C9.2384 21.7428 9.54931 21.606 9.66125 21.3199C9.76074 21.0339 9.6115 20.723 9.33789 20.6235C9.27571 20.5986 9.21352 20.5986 9.15134 20.5986C8.92748 20.5986 8.71605 20.7354 8.64143 20.9468ZM18.8893 20.7976C18.7276 20.9344 18.7028 21.1831 18.8396 21.3573C18.9888 21.5189 19.2375 21.5438 19.3992 21.407C19.5733 21.2578 19.5858 21.009 19.449 20.8474C19.3743 20.7479 19.2624 20.6981 19.1505 20.6981C19.051 20.6981 18.9639 20.7354 18.8893 20.7976ZM4.91041 20.8474C4.77361 21.009 4.79848 21.2578 4.96016 21.407C5.13427 21.5438 5.38301 21.5189 5.51981 21.3573C5.66905 21.1831 5.64418 20.9344 5.47007 20.7976C5.39545 20.7354 5.30839 20.6981 5.22133 20.6981C5.1094 20.6981 4.99747 20.7479 4.91041 20.8474ZM20.2698 20.8847C20.1579 21.009 20.1579 21.1956 20.2698 21.3199C20.3942 21.4319 20.5807 21.4319 20.6926 21.3199C20.817 21.1956 20.817 21.009 20.6926 20.8847C20.6429 20.8225 20.5558 20.7976 20.4812 20.7976C20.4066 20.7976 20.332 20.8225 20.2698 20.8847ZM3.66674 20.8847C3.54237 21.009 3.54237 21.1956 3.66674 21.3199C3.79111 21.4319 3.97766 21.4319 4.08959 21.3199C4.21395 21.1956 4.21395 21.009 4.08959 20.8847C4.03984 20.8225 3.95278 20.7976 3.87816 20.7976C3.80354 20.7976 3.72892 20.8225 3.66674 20.8847ZM13.6286 20.9966C13.3301 21.0588 13.1311 21.3324 13.1933 21.6309C13.243 21.9293 13.5166 22.1159 13.8151 22.0662C14.1136 22.0164 14.3126 21.7428 14.2628 21.4443C14.2131 21.1831 13.9768 20.9966 13.7281 20.9966C13.6907 20.9966 13.6659 20.9966 13.6286 20.9966ZM10.109 21.4443C10.0592 21.7428 10.2582 22.0164 10.5443 22.0662C10.8427 22.1159 11.1288 21.9293 11.1785 21.6309C11.2283 21.3324 11.0293 21.0588 10.7308 20.9966C10.7059 20.9966 10.6686 20.9966 10.6437 20.9966C10.3826 20.9966 10.1587 21.1831 10.109 21.4443ZM11.6387 21.6682C11.6387 21.9667 11.8874 22.2154 12.1859 22.2154C12.4844 22.2154 12.7207 21.9667 12.7207 21.6682C12.7207 21.3697 12.4844 21.1334 12.1859 21.1334C11.8874 21.1334 11.6387 21.3697 11.6387 21.6682ZM16.1657 21.3324C15.9294 21.4443 15.8299 21.7179 15.9418 21.9418C16.0413 22.1781 16.3273 22.2776 16.5512 22.1781C16.7875 22.0662 16.887 21.7925 16.7751 21.5562C16.7004 21.3821 16.5263 21.2826 16.3522 21.2826C16.29 21.2826 16.2278 21.3075 16.1657 21.3324ZM7.58431 21.5562C7.47238 21.7925 7.58431 22.0662 7.80817 22.1781C8.04447 22.2776 8.31808 22.1781 8.43001 21.9418C8.54194 21.7179 8.43001 21.4443 8.20615 21.3324C8.14396 21.3075 8.06934 21.2826 8.00716 21.2826C7.83305 21.2826 7.67137 21.3821 7.58431 21.5562ZM17.3969 21.8423C17.2103 21.9418 17.1482 22.1905 17.2601 22.3771C17.3596 22.5636 17.6083 22.6382 17.7949 22.5263C17.9814 22.4144 18.056 22.1781 17.9441 21.9791C17.8695 21.8547 17.7327 21.7801 17.5959 21.7801C17.5337 21.7801 17.4591 21.805 17.3969 21.8423ZM6.4277 21.9791C6.31576 22.1781 6.37795 22.4144 6.5645 22.5263C6.75105 22.6382 6.99978 22.5636 7.11171 22.3771C7.22365 22.1905 7.14903 21.9418 6.96247 21.8423C6.90029 21.805 6.83811 21.7801 6.76349 21.7801C6.62668 21.7801 6.48988 21.8547 6.4277 21.9791ZM14.6235 21.892C14.3748 21.9542 14.2255 22.2154 14.2877 22.4641C14.3623 22.7129 14.6111 22.8497 14.8598 22.7875C15.1085 22.7253 15.2578 22.4641 15.1832 22.2154C15.1334 22.0164 14.9469 21.8796 14.7354 21.8796C14.6981 21.8796 14.6608 21.8796 14.6235 21.892ZM9.17621 22.2154C9.11403 22.4641 9.26327 22.7253 9.49957 22.7875C9.7483 22.8497 10.0095 22.7129 10.0717 22.4641C10.1463 22.2154 9.99704 21.9542 9.7483 21.892C9.71099 21.8796 9.66125 21.8796 9.62394 21.8796C9.42495 21.8796 9.2384 22.0164 9.17621 22.2154ZM18.7401 22.1656C18.6033 22.2651 18.5784 22.4517 18.6654 22.5885C18.7649 22.7253 18.9515 22.7626 19.0883 22.6631C19.2251 22.5636 19.2624 22.3771 19.1629 22.2403C19.1007 22.1532 19.0137 22.1159 18.9142 22.1159C18.852 22.1159 18.7898 22.1283 18.7401 22.1656ZM5.19646 22.2403C5.1094 22.3771 5.13427 22.5636 5.27108 22.6631C5.40788 22.7626 5.59443 22.7253 5.69393 22.5885C5.79342 22.4517 5.75611 22.2651 5.61931 22.1656C5.56956 22.1283 5.50738 22.1159 5.44519 22.1159C5.35814 22.1159 5.25864 22.1532 5.19646 22.2403ZM13.0067 22.1781C12.7456 22.203 12.559 22.4268 12.5839 22.6756C12.6088 22.9367 12.8326 23.1233 13.0813 23.0984C13.3425 23.086 13.5291 22.8497 13.5042 22.6009C13.4793 22.3522 13.2803 22.1781 13.044 22.1781H13.0067ZM10.8552 22.6009C10.8427 22.8497 11.0293 23.086 11.278 23.0984C11.5392 23.1233 11.7631 22.9367 11.7879 22.6756C11.8004 22.4268 11.6138 22.203 11.3651 22.1781C11.3651 22.1781 11.3402 22.1781 11.3153 22.1781C11.079 22.1781 10.88 22.3522 10.8552 22.6009ZM15.7552 22.6009C15.5438 22.6756 15.4443 22.9119 15.5189 23.1108C15.5936 23.3223 15.8174 23.4218 16.0289 23.3471C16.2278 23.2725 16.3398 23.0487 16.2652 22.8372C16.203 22.688 16.0537 22.5885 15.8921 22.5885C15.8423 22.5885 15.7926 22.5885 15.7552 22.6009ZM8.10665 22.8372C8.03203 23.0487 8.13153 23.2725 8.34295 23.3471C8.54194 23.4218 8.77824 23.3223 8.85286 23.1108C8.92748 22.9119 8.81555 22.6756 8.61656 22.6009C8.56681 22.5885 8.51707 22.5885 8.47976 22.5885C8.31808 22.5885 8.16884 22.688 8.10665 22.8372ZM13.9892 23.0735C13.7778 23.1108 13.641 23.3223 13.6783 23.5337C13.7156 23.7576 13.9146 23.8944 14.1385 23.857C14.3499 23.8197 14.4867 23.6083 14.4494 23.3969C14.4245 23.2103 14.2504 23.0735 14.0639 23.0735C14.039 23.0735 14.0141 23.0735 13.9892 23.0735ZM9.90998 23.3969C9.87267 23.6083 10.0219 23.8197 10.2333 23.857C10.4448 23.8944 10.6562 23.7576 10.6935 23.5337C10.7308 23.3223 10.5816 23.1108 10.3701 23.0735C10.3453 23.0735 10.3204 23.0735 10.2955 23.0735C10.109 23.0735 9.94729 23.2103 9.90998 23.3969ZM17.0114 23.1606C16.8621 23.2352 16.7999 23.4218 16.8746 23.571C16.9367 23.7202 17.1233 23.7824 17.2725 23.7078C17.4218 23.6456 17.484 23.4591 17.4218 23.3098C17.372 23.1979 17.2601 23.1357 17.1482 23.1357C17.0984 23.1357 17.0611 23.1482 17.0114 23.1606ZM6.95004 23.3098C6.87542 23.4591 6.9376 23.6456 7.08684 23.7078C7.24852 23.7824 7.42263 23.7202 7.49725 23.571C7.55944 23.4218 7.49725 23.2352 7.34801 23.1606C7.3107 23.1482 7.26095 23.1357 7.22364 23.1357C7.11171 23.1357 6.99978 23.1979 6.95004 23.3098ZM11.7879 23.6332C11.7879 23.8446 11.962 24.0312 12.1859 24.0312C12.3973 24.0312 12.5839 23.8446 12.5839 23.6332C12.5839 23.4093 12.3973 23.2352 12.1859 23.2352C11.962 23.2352 11.7879 23.4093 11.7879 23.6332ZM15.1458 23.8446C14.9842 23.8944 14.8847 24.056 14.9344 24.2177C14.9717 24.3794 15.1334 24.4789 15.2951 24.4291C15.4568 24.3918 15.5563 24.2177 15.5189 24.056C15.4816 23.9317 15.3573 23.8322 15.2205 23.8322C15.1956 23.8322 15.1707 23.8446 15.1458 23.8446ZM8.85286 24.056C8.80311 24.2177 8.9026 24.3918 9.06428 24.4291C9.22596 24.4789 9.38764 24.3794 9.43738 24.2177C9.4747 24.056 9.38764 23.8944 9.22596 23.8446C9.20109 23.8446 9.16378 23.8322 9.1389 23.8322C9.01454 23.8322 8.89017 23.9317 8.85286 24.056ZM13.1808 24.1928C13.0067 24.2053 12.8948 24.3545 12.9072 24.5162C12.9197 24.6903 13.0689 24.8147 13.2306 24.7898C13.4047 24.7774 13.5166 24.6406 13.5042 24.4664C13.4918 24.3048 13.355 24.1928 13.2057 24.1928H13.1808ZM10.8552 24.4664C10.8427 24.6406 10.9671 24.7774 11.1288 24.7898C11.3029 24.8147 11.4521 24.6903 11.4646 24.5162C11.477 24.3545 11.3526 24.2053 11.191 24.1928H11.1537C11.0044 24.1928 10.8676 24.3048 10.8552 24.4664Z" fill="#67778E"/>
</svg>
