<svg width="28" height="35" viewBox="0 0 28 35" fill="none" xmlns="http://www.w3.org/2000/svg">
<path d="M2.27051 26.9548H25.7292V33.0155C25.7292 33.854 25.0494 34.5338 24.2109 34.5338H3.78879C2.95027 34.5338 2.27051 33.854 2.27051 33.0155V26.9548Z" fill="#FF565A"/>
<path d="M24.0869 14.1156C24.0869 18.2142 19.7098 19.0332 14.0839 19.0332C8.45803 19.0332 3.71387 18.2142 3.71387 14.1156C3.71387 10.017 8.27448 6.69434 13.9004 6.69434C19.5261 6.69434 24.0869 10.017 24.0869 14.1156Z" fill="#FFBB54"/>
<path d="M15.0977 13.4111C11.1551 13.4111 7.73809 11.7781 6.04479 9.39087C4.58879 10.6743 3.71387 12.3204 3.71387 14.1155C3.71387 18.2141 8.45803 19.0331 14.0839 19.0331C19.7098 19.0331 24.0869 18.2141 24.0869 14.1155C24.0869 12.8893 23.676 11.7335 22.9533 10.7144C21.0849 12.3616 18.2596 13.4111 15.0977 13.4111Z" fill="#FFAD30"/>
<path d="M25.3241 7.22688C24.0153 7.22688 19.1192 13.8173 19.1192 13.8173C19.1192 13.8173 15.1825 2.75098 13.8894 2.75098C12.5961 2.75098 8.6596 13.8173 8.6596 13.8173C8.6596 13.8173 3.79424 7.22674 2.48545 7.22674C1.72492 7.22674 2.45052 21.3525 3.07175 21.9659C3.68945 22.576 11.1582 23.1559 13.8755 23.1559C16.5928 23.1559 23.9205 22.6621 24.6793 21.9659C25.3172 21.3807 26.0868 7.22688 25.3241 7.22688Z" fill="#FFCC54"/>
<path d="M15.3475 2.50262C15.3475 3.34913 14.6614 4.03527 13.8149 4.03527C12.9684 4.03527 12.2822 3.34913 12.2822 2.50262C12.2822 1.65611 12.9684 0.969971 13.8149 0.969971C14.6614 0.969971 15.3475 1.65626 15.3475 2.50262Z" fill="#FFCC54"/>
<path d="M13.8147 3.71487C13.2454 3.71487 12.7822 3.2516 12.7822 2.68227C12.7822 2.11293 13.2454 1.64966 13.8147 1.64966C14.384 1.64966 14.8472 2.11293 14.8472 2.68227C14.8472 3.2516 14.3839 3.71487 13.8147 3.71487Z" fill="#FFBB54"/>
<path d="M13.8147 3.53518C13.2454 3.53518 12.7822 3.07191 12.7822 2.50258C12.7822 1.93324 13.2454 1.46997 13.8147 1.46997C14.384 1.46997 14.8472 1.93324 14.8472 2.50258C14.8472 3.07191 14.3839 3.53518 13.8147 3.53518Z" fill="#FF565A"/>
<path d="M13.9593 1.75089C13.5949 1.80293 14.0581 2.56274 14.2886 2.50264C14.519 2.4424 14.4203 1.68499 13.9593 1.75089Z" fill="white"/>
<path d="M13.8147 3.09384C13.3213 3.09384 12.9088 2.7454 12.8073 2.28198C12.7917 2.35326 12.7822 2.42679 12.7822 2.50273C12.7822 3.07206 13.2455 3.53534 13.8147 3.53534C14.384 3.53534 14.8472 3.07206 14.8472 2.50273C14.8472 2.42693 14.8378 2.3534 14.8221 2.28212C14.7206 2.7454 14.3081 3.09384 13.8147 3.09384Z" fill="#FF3B48"/>
<path d="M3.69225 7.22674C3.69225 8.07324 3.0061 8.75939 2.1596 8.75939C1.31309 8.75939 0.626953 8.07324 0.626953 7.22674C0.626953 6.38023 1.31309 5.69409 2.1596 5.69409C3.0061 5.69409 3.69225 6.38023 3.69225 7.22674Z" fill="#FFCC54"/>
<path d="M2.15942 8.43899C1.59008 8.43899 1.12695 7.97572 1.12695 7.40638C1.12695 6.83705 1.59008 6.37378 2.15942 6.37378C2.72875 6.37378 3.19189 6.83705 3.19189 7.40638C3.19189 7.97572 2.72861 8.43899 2.15942 8.43899Z" fill="#FFBB54"/>
<path d="M2.15942 8.25931C1.59008 8.25931 1.12695 7.79603 1.12695 7.2267C1.12695 6.65737 1.59008 6.19409 2.15942 6.19409C2.72875 6.19409 3.19189 6.65737 3.19189 7.2267C3.19189 7.79589 2.72875 8.25931 2.15942 8.25931Z" fill="#FF565A"/>
<path d="M2.30402 6.47501C1.9396 6.52705 2.40287 7.28687 2.63337 7.22677C2.86388 7.16652 2.76503 6.40911 2.30402 6.47501Z" fill="white"/>
<path d="M2.15942 7.81772C1.66602 7.81772 1.25352 7.46927 1.15198 7.00586C1.13629 7.07713 1.12695 7.15067 1.12695 7.22661C1.12695 7.79594 1.59023 8.25921 2.15942 8.25921C2.72875 8.25921 3.19189 7.79594 3.19189 7.22661C3.19189 7.15067 3.18241 7.07727 3.16686 7.006C3.06532 7.46927 2.65281 7.81772 2.15942 7.81772Z" fill="#FF3B48"/>
<path d="M27.1747 7.22674C27.1747 8.07324 26.4885 8.75939 25.642 8.75939C24.7955 8.75939 24.1094 8.07324 24.1094 7.22674C24.1094 6.38023 24.7955 5.69409 25.642 5.69409C26.4885 5.69409 27.1747 6.38023 27.1747 7.22674Z" fill="#FFCC54"/>
<path d="M25.6418 8.43899C25.0725 8.43899 24.6094 7.97572 24.6094 7.40638C24.6094 6.83705 25.0725 6.37378 25.6418 6.37378C26.2112 6.37378 26.6743 6.83705 26.6743 7.40638C26.6743 7.97572 26.2112 8.43899 25.6418 8.43899Z" fill="#FFBB54"/>
<path d="M25.6418 8.25931C25.0725 8.25931 24.6094 7.79603 24.6094 7.2267C24.6094 6.65737 25.0725 6.19409 25.6418 6.19409C26.2112 6.19409 26.6743 6.65737 26.6743 7.2267C26.6743 7.79589 26.2112 8.25931 25.6418 8.25931Z" fill="#FF565A"/>
<path d="M25.7865 6.47501C25.422 6.52705 25.8852 7.28687 26.1159 7.22677C26.3464 7.16652 26.2475 6.40911 25.7865 6.47501Z" fill="white"/>
<path d="M25.6418 7.81772C25.1484 7.81772 24.7359 7.46927 24.6344 7.00586C24.6189 7.07713 24.6094 7.15067 24.6094 7.22661C24.6094 7.79594 25.0725 8.25921 25.6418 8.25921C26.2112 8.25921 26.6743 7.79594 26.6743 7.22661C26.6743 7.15067 26.6648 7.07727 26.6493 7.006C26.5477 7.46927 26.1352 7.81772 25.6418 7.81772Z" fill="#FF3B48"/>
<path d="M13.8752 23.156C16.5924 23.156 23.9201 22.6622 24.6789 21.966C24.8459 21.8127 25.0219 20.7286 25.1771 19.2128C23.1973 19.9678 20.1148 20.5356 15.3461 20.3083C4.90567 19.8107 4.17216 15.3166 2.16309 11.1069C2.21088 15.3369 2.66369 21.5632 3.07153 21.966C3.68909 22.5761 11.1579 23.156 13.8752 23.156Z" fill="#FFBB54"/>
<circle cx="13.9742" cy="22.6094" r="3.49858" fill="#1C1F21"/>
<path d="M13.8643 25.1114C12.4245 25.1114 11.2531 23.9397 11.2529 22.4999C11.2529 21.0602 12.4244 19.8884 13.8641 19.8884C15.3039 19.8884 16.4754 21.0602 16.4754 22.4999C16.4755 23.9397 15.304 25.1114 13.8643 25.1114Z" fill="#FF565A"/>
<path d="M14.2294 20.5984C13.3076 20.73 14.4793 22.6517 15.0622 22.4996C15.6453 22.3474 15.3954 20.4318 14.2294 20.5984Z" fill="white"/>
<path d="M13.8643 23.995C12.6164 23.995 11.5731 23.1136 11.3163 21.9417C11.2768 22.1218 11.2531 22.3078 11.2529 22.4998C11.2529 23.9397 12.4244 25.1113 13.8643 25.1113C15.304 25.1113 16.4755 23.9395 16.4754 22.4997C16.4754 22.3078 16.4516 22.122 16.4122 21.9417C16.1555 23.1136 15.1121 23.995 13.8643 23.995Z" fill="#FF3B48"/>
<path d="M8.40674 28.8346C8.39519 28.7922 8.58959 28.7711 8.98995 28.7711C9.43266 28.7711 9.65979 28.8076 9.67134 28.8808L9.95428 31.3118L10.5664 28.8519C10.5856 28.7942 10.7358 28.7653 11.0168 28.7653C11.2978 28.7653 11.4479 28.7922 11.4672 28.8461L12.0677 31.3234L12.4026 28.8692C12.4103 28.8269 12.4989 28.798 12.6683 28.7826C12.8377 28.7672 12.9743 28.7595 13.0783 28.7595C13.4825 28.7595 13.6788 28.7865 13.6672 28.8404L12.9685 32.6688C12.9531 32.7266 12.8434 32.7689 12.6394 32.7959C12.4354 32.8228 12.2698 32.8363 12.1428 32.8363C11.6654 32.8363 11.4152 32.7824 11.3921 32.6746L10.9995 31.0866L10.5721 32.6688C10.5568 32.7381 10.422 32.7882 10.1679 32.819C10.0371 32.8305 9.90616 32.8363 9.77528 32.8363L9.40571 32.819C9.15164 32.792 9.0169 32.7439 9.0015 32.6746L8.40674 28.8346Z" fill="white"/>
<path d="M14.5746 31.8257V29.77H14.1646C14.0991 29.77 14.0529 29.6873 14.026 29.5217C14.0144 29.4409 14.0087 29.3581 14.0087 29.2734C14.0087 29.1888 14.0144 29.106 14.026 29.0251C14.0529 28.8596 14.0991 28.7768 14.1646 28.7768H16.1048C16.1702 28.7768 16.2145 28.8596 16.2376 29.0251C16.253 29.106 16.2607 29.1888 16.2607 29.2734C16.2607 29.3581 16.253 29.4409 16.2376 29.5217C16.2145 29.6873 16.1702 29.77 16.1048 29.77H15.7179V31.8257H16.1221C16.1875 31.8257 16.2337 31.9085 16.2607 32.074C16.2761 32.1549 16.2838 32.2377 16.2838 32.3223C16.2838 32.407 16.2761 32.4898 16.2607 32.5706C16.2337 32.7362 16.1875 32.819 16.1221 32.819H14.1761C14.1107 32.819 14.0664 32.7362 14.0433 32.5706C14.0279 32.4898 14.0202 32.407 14.0202 32.3223C14.0202 32.2377 14.0279 32.1549 14.0433 32.074C14.0664 31.9085 14.1107 31.8257 14.1761 31.8257H14.5746Z" fill="white"/>
<path d="M19.9489 32.6919C19.9489 32.7728 19.768 32.8132 19.4061 32.8132C19.0442 32.8132 18.8479 32.7843 18.8171 32.7266L17.8528 30.9249V32.7208C17.8528 32.7901 17.6738 32.8247 17.3157 32.8247C16.9616 32.8247 16.7845 32.7901 16.7845 32.7208V28.8577C16.7845 28.7999 16.9366 28.7711 17.2407 28.7711C17.36 28.7711 17.4986 28.7826 17.6564 28.8057C17.8181 28.825 17.9163 28.8635 17.9509 28.9212L18.8748 30.6997V28.8866C18.8748 28.8134 19.0538 28.7768 19.4119 28.7768C19.7699 28.7768 19.9489 28.8134 19.9489 28.8866V32.6919Z" fill="white"/>
</svg>
