<svg width="136" height="136" viewBox="0 0 136 136" fill="none" xmlns="http://www.w3.org/2000/svg">
<circle cx="68" cy="68" r="68" fill="#1C1F21"/>
<circle cx="68" cy="68" r="53" fill="#090C0E"/>
<path d="M49.7118 8.6547C62.2487 4.78831 75.6878 4.99008 88.1029 9.2311L85.0905 18.0495C74.5376 14.4447 63.1144 14.2732 52.4581 17.5596L49.7118 8.6547Z" fill="white" fill-opacity="0.1"/>
<path d="M88.1072 9.23011C100.522 13.4717 111.276 21.5346 118.827 32.2634L111.206 37.6268C104.788 28.5073 95.6472 21.6537 85.0945 18.0484L88.1072 9.23011Z" fill="#B4F39B"/>
<path d="M118.813 32.2477C126.367 42.9742 130.331 55.8168 130.138 68.9349L120.82 68.7975C120.984 57.6471 117.615 46.7308 111.194 37.6133L118.813 32.2477Z" fill="white" fill-opacity="0.1"/>
<path d="M130.141 68.9345C129.948 82.0526 125.607 94.7728 117.74 105.272L110.282 99.6843C116.969 90.7599 120.659 79.9477 120.823 68.7973L130.141 68.9345Z" fill="#78C4F4"/>
<path d="M117.692 105.336C109.812 115.825 98.813 123.55 86.2723 127.404L83.5349 118.496C94.1945 115.22 103.543 108.654 110.242 99.7383L117.692 105.336Z" fill="white" fill-opacity="0.1"/>
<path d="M86.2189 127.421C73.6747 131.263 60.236 131.035 47.829 126.771L50.8583 117.958C61.4042 121.583 72.8271 121.776 83.4897 118.51L86.2189 127.421Z" fill="#B4F39B"/>
<path d="M47.7962 126.761C35.3916 122.489 24.6577 114.4 17.1331 103.653L24.7668 98.3081C31.1627 107.443 40.2865 114.319 50.8304 117.95L47.7962 126.761Z" fill="white" fill-opacity="0.1"/>
<path d="M17.1445 103.673C9.61574 92.9292 5.68167 80.0772 5.90611 66.9596L15.2235 67.119C15.0327 78.269 18.3767 89.1932 24.7762 98.3258L17.1445 103.673Z" fill="#B59CFA"/>
<path d="M5.90621 66.9064C6.14245 53.789 10.5253 41.0831 18.4267 30.6097L25.8659 36.222C19.1497 45.1244 15.4243 55.9244 15.2235 67.0742L5.90621 66.9064Z" fill="white" fill-opacity="0.1"/>
<path d="M18.4667 30.5547C26.3793 20.0898 37.4017 12.3985 49.9541 8.58309L52.6642 17.4991C41.9946 20.7422 32.6256 27.2798 25.8999 36.1749L18.4667 30.5547Z" fill="#FFBB6C"/>
<circle cx="68" cy="68" r="39.5636" stroke="white" stroke-opacity="0.08" stroke-width="0.872722"/>
</svg>
