<svg width="28" height="25" viewBox="0 0 28 25" fill="none" xmlns="http://www.w3.org/2000/svg">
<path fill-rule="evenodd" clip-rule="evenodd" d="M14.0014 0.874023C18.958 0.874075 22.9764 5.41129 22.9764 11.0062C22.9761 18.1346 14.0466 24.8401 14.0014 24.874C13.973 24.8528 5.02766 18.1414 5.02734 11.0062C5.02734 5.41126 9.04462 0.874023 14.0014 0.874023ZM14.0003 7.09719C12.0185 7.09723 10.411 8.68921 10.4109 10.6536C10.4109 12.6166 12.0184 14.2089 14.0003 14.2089C15.9837 14.2089 17.5907 12.6166 17.5907 10.6536C17.5906 8.68918 15.9836 7.09719 14.0003 7.09719Z" fill="#FF7043"/>
<path d="M13.761 1.70605C15.6754 1.70605 17.4319 2.41256 18.8038 3.58921C17.5284 2.756 16.017 2.27161 14.3951 2.27161C9.84086 2.27171 6.14892 6.07573 6.14889 10.7682C6.14889 11.8083 6.33124 12.8044 6.66316 13.7254C6.12149 12.6046 5.81445 11.3388 5.81445 9.99784C5.81449 5.41847 9.37223 1.70616 13.761 1.70605Z" fill="#F8AA92"/>
</svg>
