<svg width="25" height="33" viewBox="0 0 25 33" fill="none" xmlns="http://www.w3.org/2000/svg">
<path d="M0.270508 24.9548H23.7292V31.0155C23.7292 31.854 23.0494 32.5338 22.2109 32.5338H1.78879C0.950265 32.5338 0.270508 31.854 0.270508 31.0155V24.9548Z" fill="#FF565A"/>
<path d="M6.63723 30.2533V26.6616C6.63723 26.5808 6.83163 26.5403 7.22045 26.5403C7.61311 26.5403 7.80944 26.5808 7.80944 26.6616V29.4911H8.6987C8.76799 29.4911 8.81611 29.5815 8.84306 29.7625C8.85461 29.851 8.86039 29.9415 8.86039 30.0339C8.86039 30.1263 8.85461 30.2206 8.84306 30.3168C8.81227 30.5016 8.76222 30.594 8.69293 30.594H6.9144C6.82971 30.594 6.76234 30.5593 6.7123 30.4901C6.66225 30.4208 6.63723 30.3418 6.63723 30.2533ZM10.9194 30.6517C10.3804 30.6517 9.93965 30.4747 9.59703 30.1205C9.25827 29.7663 9.08888 29.2505 9.08888 28.5729C9.08888 27.8916 9.26019 27.3757 9.60281 27.0254C9.94927 26.6751 10.3939 26.4999 10.9367 26.4999C11.4833 26.4999 11.9241 26.6732 12.259 27.0196C12.594 27.3622 12.7614 27.8839 12.7614 28.5845C12.7614 29.2813 12.5901 29.801 12.2475 30.1436C11.9049 30.4824 11.4622 30.6517 10.9194 30.6517ZM10.9252 27.6086C10.7404 27.6086 10.5845 27.6933 10.4574 27.8627C10.3342 28.0321 10.2726 28.2707 10.2726 28.5787C10.2726 28.8828 10.3323 29.1177 10.4516 29.2832C10.571 29.4449 10.7269 29.5257 10.9194 29.5257C11.1157 29.5257 11.2735 29.443 11.3929 29.2774C11.5161 29.1119 11.5777 28.8751 11.5777 28.5672C11.5777 28.2592 11.5141 28.0224 11.3871 27.8569C11.2639 27.6914 11.1099 27.6086 10.9252 27.6086ZM13.3752 29.185C13.4483 29.2428 13.5734 29.3217 13.7505 29.4218C13.9315 29.5219 14.1028 29.5719 14.2644 29.5719C14.43 29.5719 14.5127 29.5084 14.5127 29.3814C14.5127 29.3236 14.4896 29.2736 14.4435 29.2312C14.3973 29.185 14.3126 29.1331 14.1894 29.0753C14.0662 29.0176 13.9738 28.9733 13.9122 28.9425C13.8506 28.9079 13.7678 28.854 13.6639 28.7808C13.5638 28.7038 13.4868 28.6249 13.4329 28.5441C13.2789 28.3246 13.2019 28.0455 13.2019 27.7068C13.2019 27.368 13.3271 27.0831 13.5773 26.8522C13.8314 26.6173 14.1624 26.4999 14.5705 26.4999C14.8477 26.4999 15.1037 26.5307 15.3385 26.5923C15.5733 26.6501 15.6946 26.727 15.7023 26.8233C15.7023 26.8348 15.7023 26.8464 15.7023 26.8579C15.7023 26.9927 15.6599 27.164 15.5752 27.3719C15.4906 27.5759 15.4309 27.6895 15.3962 27.7126C15.1499 27.5855 14.9285 27.522 14.7322 27.522C14.5397 27.522 14.4435 27.5913 14.4435 27.7299C14.4435 27.8146 14.5147 27.8896 14.6571 27.9551C14.6879 27.9705 14.7322 27.9916 14.7899 28.0186C14.8477 28.0455 14.9131 28.0783 14.9862 28.1168C15.0632 28.1514 15.1441 28.1976 15.2288 28.2553C15.3173 28.3092 15.4116 28.3824 15.5117 28.4748C15.7158 28.6673 15.8178 28.9213 15.8178 29.237C15.8178 29.6489 15.7042 29.9858 15.4771 30.2475C15.2499 30.5093 14.8996 30.644 14.4261 30.6517C14.1952 30.6517 13.9853 30.6325 13.7967 30.594C13.6119 30.5555 13.4502 30.4804 13.3117 30.3688C13.1731 30.2572 13.1038 30.1224 13.1038 29.9646C13.1038 29.8067 13.1327 29.6508 13.1904 29.4969C13.2481 29.339 13.3097 29.2351 13.3752 29.185ZM18.1694 28.1572C18.2426 28.1572 18.2791 28.2919 18.2791 28.5614C18.2791 28.6422 18.2695 28.7385 18.2502 28.8501C18.2349 28.9579 18.2041 29.0118 18.1579 29.0118H17.4245V29.5892H18.487C18.5524 29.5892 18.5967 29.6739 18.6198 29.8433C18.6314 29.9165 18.6371 29.9954 18.6371 30.0801C18.6371 30.1609 18.6256 30.2668 18.6025 30.3977C18.5794 30.5286 18.5409 30.594 18.487 30.594H16.5121C16.3659 30.594 16.2927 30.5343 16.2927 30.415V26.702C16.2927 26.6019 16.337 26.5519 16.4255 26.5519H18.4928C18.5736 26.5519 18.614 26.7232 18.614 27.0658C18.614 27.4046 18.5736 27.574 18.4928 27.574H17.4245V28.1572H18.1694Z" fill="white"/>
<circle cx="12.1966" cy="12.3404" r="10.9466" fill="#FFCC54"/>
<circle cx="12.1966" cy="12.3404" r="10.9466" fill="#FF565A"/>
<path d="M23.3255 11.7675C23.3099 14.3493 22.377 16.9628 20.5028 19.0752C16.4905 23.5973 9.68452 24.1107 5.30138 20.2218C2.40713 17.6539 1.29383 13.8087 2.02597 10.1907C2.00804 13.1363 3.1838 16.0408 5.51969 18.1134C9.90285 22.0023 16.7088 21.489 20.7211 16.9667C22.0842 15.4304 22.9489 13.629 23.3255 11.7675Z" fill="#E44B4E"/>
<path d="M12.3601 13.5594C13.4175 13.5594 14.4607 13.853 15.2567 14.4123L15.3307 14.4656C16.0875 15.0246 16.5821 15.8234 16.5821 16.7259C16.5821 17.0969 16.2813 17.3976 15.9104 17.3976C15.5394 17.3976 15.2387 17.0969 15.2387 16.7259C15.2387 16.3587 15.0444 15.9419 14.5807 15.5825L14.4844 15.5113C13.9487 15.1349 13.1858 14.9028 12.3601 14.9028C11.5859 14.9028 10.8671 15.1069 10.3388 15.4425L10.2358 15.5113C9.7025 15.886 9.48144 16.3342 9.48144 16.7259C9.48144 17.0969 9.18072 17.3976 8.80976 17.3976C8.43881 17.3976 8.13808 17.0969 8.13808 16.7259C8.13808 15.7943 8.66511 14.9733 9.46345 14.4123L9.53879 14.3606C10.3246 13.8349 11.3357 13.5594 12.3601 13.5594Z" fill="#5B1D1D"/>
<path d="M7.49039 8.76172C7.49039 8.89716 7.51709 9.03127 7.56892 9.15641C7.62076 9.28155 7.69672 9.39534 7.7925 9.49112C7.88828 9.5869 8.00207 9.66286 8.12721 9.7147C8.25235 9.76653 8.38646 9.79323 8.5219 9.79323C8.65734 9.79323 8.79145 9.76653 8.91659 9.7147C9.04174 9.66286 9.15552 9.5869 9.2513 9.49112C9.34709 9.39534 9.42305 9.28155 9.47488 9.15641C9.52671 9.03127 9.55341 8.89716 9.55341 8.76172H10.9208C10.9208 9.07671 10.8587 9.38864 10.7382 9.67966C10.6177 9.9707 10.4409 10.2352 10.2182 10.458C9.9954 10.6807 9.73088 10.8575 9.43984 10.978C9.14882 11.0986 8.83689 11.1606 8.5219 11.1606C8.20691 11.1606 7.89498 11.0986 7.60396 10.978C7.31292 10.8575 7.0484 10.6807 6.82565 10.458C6.60289 10.2352 6.42614 9.9707 6.30558 9.67966C6.18505 9.38864 6.12305 9.07671 6.12305 8.76172H7.49039Z" fill="#5B1D1D"/>
<path d="M15.1667 8.76172C15.1667 8.89716 15.1934 9.03127 15.2453 9.15641C15.2971 9.28155 15.373 9.39534 15.4688 9.49112C15.5646 9.5869 15.6784 9.66286 15.8035 9.7147C15.9287 9.76653 16.0628 9.79323 16.1982 9.79323C16.3337 9.79323 16.4678 9.76653 16.5929 9.7147C16.7181 9.66286 16.8319 9.5869 16.9276 9.49112C17.0234 9.39534 17.0994 9.28155 17.1512 9.15641C17.203 9.03127 17.2297 8.89716 17.2297 8.76172H18.5971C18.5971 9.07671 18.5351 9.38864 18.4145 9.67966C18.294 9.9707 18.1172 10.2352 17.8945 10.458C17.6717 10.6807 17.4072 10.8575 17.1162 10.978C16.8252 11.0986 16.5132 11.1606 16.1982 11.1606C15.8832 11.1606 15.5713 11.0986 15.2803 10.978C14.9893 10.8575 14.7247 10.6807 14.502 10.458C14.2792 10.2352 14.1025 9.9707 13.9819 9.67966C13.8614 9.38864 13.7994 9.07671 13.7994 8.76172H15.1667Z" fill="#5B1D1D"/>
<path d="M12.3601 13.5594C13.4175 13.5594 14.4607 13.853 15.2567 14.4123L15.3307 14.4656C16.0875 15.0246 16.5821 15.8234 16.5821 16.7259C16.5821 17.0969 16.2813 17.3976 15.9104 17.3976C15.5394 17.3976 15.2387 17.0969 15.2387 16.7259C15.2387 16.3587 15.0444 15.9419 14.5807 15.5825L14.4844 15.5113C13.9487 15.1349 13.1858 14.9028 12.3601 14.9028C11.5859 14.9028 10.8671 15.1069 10.3388 15.4425L10.2358 15.5113C9.7025 15.886 9.48144 16.3342 9.48144 16.7259C9.48144 17.0969 9.18072 17.3976 8.80976 17.3976C8.43881 17.3976 8.13808 17.0969 8.13808 16.7259C8.13808 15.7943 8.66511 14.9733 9.46345 14.4123L9.53879 14.3606C10.3246 13.8349 11.3357 13.5594 12.3601 13.5594Z" fill="#5B1D1D"/>
<path d="M7.49039 8.76172C7.49039 8.89716 7.51709 9.03127 7.56892 9.15641C7.62076 9.28155 7.69672 9.39534 7.7925 9.49112C7.88828 9.5869 8.00207 9.66286 8.12721 9.7147C8.25235 9.76653 8.38646 9.79323 8.5219 9.79323C8.65734 9.79323 8.79145 9.76653 8.91659 9.7147C9.04174 9.66286 9.15552 9.5869 9.2513 9.49112C9.34709 9.39534 9.42305 9.28155 9.47488 9.15641C9.52671 9.03127 9.55341 8.89716 9.55341 8.76172H10.9208C10.9208 9.07671 10.8587 9.38864 10.7382 9.67966C10.6177 9.9707 10.4409 10.2352 10.2182 10.458C9.9954 10.6807 9.73088 10.8575 9.43984 10.978C9.14882 11.0986 8.83689 11.1606 8.5219 11.1606C8.20691 11.1606 7.89498 11.0986 7.60396 10.978C7.31292 10.8575 7.0484 10.6807 6.82565 10.458C6.60289 10.2352 6.42614 9.9707 6.30558 9.67966C6.18505 9.38864 6.12305 9.07671 6.12305 8.76172H7.49039Z" fill="#5B1D1D"/>
<path d="M15.1667 8.76172C15.1667 8.89716 15.1934 9.03127 15.2453 9.15641C15.2971 9.28155 15.373 9.39534 15.4688 9.49112C15.5646 9.5869 15.6784 9.66286 15.8035 9.7147C15.9287 9.76653 16.0628 9.79323 16.1982 9.79323C16.3337 9.79323 16.4678 9.76653 16.5929 9.7147C16.7181 9.66286 16.8319 9.5869 16.9276 9.49112C17.0234 9.39534 17.0994 9.28155 17.1512 9.15641C17.203 9.03127 17.2297 8.89716 17.2297 8.76172H18.5971C18.5971 9.07671 18.5351 9.38864 18.4145 9.67966C18.294 9.9707 18.1172 10.2352 17.8945 10.458C17.6717 10.6807 17.4072 10.8575 17.1162 10.978C16.8252 11.0986 16.5132 11.1606 16.1982 11.1606C15.8832 11.1606 15.5713 11.0986 15.2803 10.978C14.9893 10.8575 14.7247 10.6807 14.502 10.458C14.2792 10.2352 14.1025 9.9707 13.9819 9.67966C13.8614 9.38864 13.7994 9.07671 13.7994 8.76172H15.1667Z" fill="#5B1D1D"/>
<path d="M12.1976 1.7937C17.9725 1.7937 22.654 6.25691 22.654 11.7626C22.654 11.8163 22.6526 11.8699 22.6517 11.9233C22.5616 6.49186 17.9162 2.28385 12.1976 2.28385C6.47903 2.28385 1.83328 6.49186 1.74319 11.9233C1.7423 11.8699 1.74121 11.8163 1.74121 11.7626C1.74121 6.25691 6.42271 1.7937 12.1976 1.7937Z" fill="#E44B4E"/>
<path d="M16.9887 4.93541C16.286 5.52526 18.5171 7.17665 18.9173 6.72447C19.3176 6.27222 17.8774 4.1893 16.9887 4.93541Z" fill="#FFDCDD"/>
<circle cx="12.1969" cy="12.2498" r="10.749" stroke="#1C1F21" stroke-width="0.721804"/>
<circle cx="12.1959" cy="12.2496" r="10.749" stroke="#2D0C0B" stroke-width="0.721804"/>
</svg>
