<svg width="24" height="28" viewBox="0 0 24 28" fill="none" xmlns="http://www.w3.org/2000/svg"
    class="Sidebar_mainLogo__hS6NU">
    <path opacity="0.8" fill-rule="evenodd" clip-rule="evenodd"
        d="M25.7973 19.6C25.7973 24.2392 21.9801 28 17.2714 28H1.16669V22.4H17.2714C18.8409 22.4 20.1134 21.1464 20.1134 19.6C20.1134 18.0536 18.8409 16.8 17.2714 16.8H11.5874V11.2H17.2714C18.8409 11.2 20.1134 9.9464 20.1134 8.4C20.1134 6.8536 18.8409 5.6 17.2714 5.6H1.16669V0H17.2714C21.9801 0 25.7973 3.76081 25.7973 8.4C25.7973 10.5514 24.9764 12.5139 23.6264 14C24.9764 15.4861 25.7973 17.4486 25.7973 19.6Z"
        fill="#FE815F"></path>
</svg>