<svg width="12" height="12" viewBox="0 0 12 12" fill="none" xmlns="http://www.w3.org/2000/svg">
<path d="M0.794485 0.795896C1.16058 0.429805 1.7396 0.407253 2.13238 0.727537L2.20855 0.795896L6.00152 4.58887L9.79449 0.795896L9.87066 0.727537C10.2634 0.407194 10.8424 0.429805 11.2085 0.795896C11.5747 1.16201 11.5973 1.74101 11.2769 2.13379L11.2085 2.20996L7.41558 6.00293L11.2076 9.79492L11.2759 9.87012C11.5966 10.2629 11.5738 10.8428 11.2076 11.209C10.8413 11.5748 10.2613 11.5979 9.8687 11.2773L9.79351 11.209L6.00152 7.41699L2.20952 11.209L2.13433 11.2773C1.74156 11.5976 1.16153 11.5751 0.795462 11.209C0.429419 10.8429 0.406874 10.2629 0.727102 9.87012L0.795462 9.79492L4.58745 6.00293L0.794485 2.20996L0.726126 2.13379C0.405906 1.74117 0.4288 1.16204 0.794485 0.795896Z" fill="#F9FAFB"/>
</svg>
