<svg width="68" height="68" viewBox="0 0 68 68" fill="none" xmlns="http://www.w3.org/2000/svg">
<path d="M34 68C52.7777 68 68 52.7777 68 34C68 15.2223 52.7777 0 34 0C15.2223 0 0 15.2223 0 34C0 52.7777 15.2223 68 34 68Z" fill="url(#paint0_linear_12_379)"/>
<path d="M34 2.23684C51.4921 2.23684 65.7632 16.4632 65.7632 34C65.7632 51.5368 51.4921 65.7632 34 65.7632C16.5079 65.7632 2.23684 51.4921 2.23684 34C2.23684 16.5079 16.4632 2.23684 34 2.23684ZM34 0C15.2105 0 0 15.2105 0 34C0 52.7895 15.2105 68 34 68C52.7895 68 68 52.7895 68 34C68 15.2105 52.7895 0 34 0Z" fill="url(#paint1_linear_12_379)"/>
<path d="M33.9995 61.5134C18.8337 61.5134 6.48633 49.166 6.48633 34.0002C6.48633 18.8344 18.8337 6.48706 33.9995 6.48706C49.1653 6.48706 61.5126 18.8344 61.5126 34.0002C61.5126 49.166 49.1653 61.5134 33.9995 61.5134ZM33.9995 7.82917C19.5495 7.82917 7.82843 19.5502 7.82843 34.0002C7.82843 48.4502 19.5495 60.1713 33.9995 60.1713C48.4495 60.1713 60.1705 48.4502 60.1705 34.0002C60.1705 19.5502 48.4495 7.82917 33.9995 7.82917Z" fill="url(#paint2_linear_12_379)"/>
<path d="M15.7373 31.1305V29.2723H23.739V31.1305H20.8684V38.7393H18.6125V31.1305H15.7373Z" fill="black"/>
<path d="M15.7373 31.1305V29.2723H23.739V31.1305H20.8684V38.7393H18.6125V31.1305H15.7373Z" fill="url(#paint3_linear_12_379)"/>
<path d="M25.722 38.7393H23.2628L26.457 29.2723H29.5033L32.6975 38.7393H30.2383L28.0148 31.6575H27.9409L25.722 38.7393ZM25.3938 35.0135H30.5341V36.7516H25.3938V35.0135Z" fill="black"/>
<path d="M25.722 38.7393H23.2628L26.457 29.2723H29.5033L32.6975 38.7393H30.2383L28.0148 31.6575H27.9409L25.722 38.7393ZM25.3938 35.0135H30.5341V36.7516H25.3938V35.0135Z" fill="url(#paint4_linear_12_379)"/>
<path d="M36.0049 29.2723V38.7393H33.7168V29.2723H36.0049Z" fill="black"/>
<path d="M36.0049 29.2723V38.7393H33.7168V29.2723H36.0049Z" fill="url(#paint5_linear_12_379)"/>
<path d="M37.4414 38.7393V29.2723H39.7296V36.881H43.668V38.7393H37.4414Z" fill="black"/>
<path d="M37.4414 38.7393V29.2723H39.7296V36.881H43.668V38.7393H37.4414Z" fill="url(#paint6_linear_12_379)"/>
<path d="M49.9697 32.1105C49.9389 31.7715 49.8018 31.508 49.5583 31.3201C49.3179 31.129 48.9743 31.0335 48.5275 31.0335C48.2316 31.0335 47.9851 31.072 47.7879 31.149C47.5906 31.2261 47.4427 31.3324 47.3441 31.468C47.2455 31.6005 47.1946 31.753 47.1915 31.9256C47.1854 32.0674 47.2131 32.1922 47.2748 32.3C47.3395 32.4079 47.4319 32.5034 47.5521 32.5866C47.6754 32.6668 47.8233 32.7376 47.9959 32.7993C48.1685 32.8609 48.3626 32.9148 48.5783 32.9611L49.3919 33.146C49.8603 33.2477 50.2733 33.3833 50.6307 33.5527C50.9913 33.7222 51.2933 33.9241 51.5368 34.1583C51.7833 34.3925 51.9697 34.6622 52.0961 34.9673C52.2224 35.2723 52.2872 35.6144 52.2902 35.9935C52.2872 36.5913 52.1362 37.1044 51.8372 37.5328C51.5383 37.9611 51.1084 38.2893 50.5475 38.5174C49.9897 38.7454 49.3164 38.8595 48.5275 38.8595C47.7355 38.8595 47.0452 38.7408 46.4566 38.5035C45.868 38.2662 45.4103 37.9057 45.0837 37.4218C44.757 36.938 44.589 36.3263 44.5798 35.5867H46.7709C46.7894 35.8918 46.8711 36.146 47.0159 36.3494C47.1607 36.5528 47.3595 36.7069 47.6122 36.8117C47.868 36.9164 48.1638 36.9688 48.4997 36.9688C48.8079 36.9688 49.0699 36.9272 49.2856 36.844C49.5044 36.7608 49.6723 36.6452 49.7894 36.4973C49.9065 36.3494 49.9666 36.1799 49.9697 35.9888C49.9666 35.8101 49.9112 35.6576 49.8033 35.5312C49.6954 35.4018 49.529 35.2908 49.3041 35.1984C49.0822 35.1028 48.7987 35.015 48.4535 34.9349L47.4643 34.7038C46.6445 34.5158 45.9989 34.2122 45.5274 33.7931C45.0559 33.3709 44.8217 32.8008 44.8248 32.0828C44.8217 31.4972 44.9789 30.9841 45.2963 30.5435C45.6137 30.1028 46.0529 29.7592 46.6137 29.5126C47.1746 29.2661 47.8141 29.1428 48.5321 29.1428C49.2655 29.1428 49.9019 29.2676 50.4412 29.5172C50.9836 29.7638 51.4042 30.1105 51.7032 30.5573C52.0021 31.0042 52.1546 31.5219 52.1608 32.1105H49.9697Z" fill="black"/>
<path d="M49.9697 32.1105C49.9389 31.7715 49.8018 31.508 49.5583 31.3201C49.3179 31.129 48.9743 31.0335 48.5275 31.0335C48.2316 31.0335 47.9851 31.072 47.7879 31.149C47.5906 31.2261 47.4427 31.3324 47.3441 31.468C47.2455 31.6005 47.1946 31.753 47.1915 31.9256C47.1854 32.0674 47.2131 32.1922 47.2748 32.3C47.3395 32.4079 47.4319 32.5034 47.5521 32.5866C47.6754 32.6668 47.8233 32.7376 47.9959 32.7993C48.1685 32.8609 48.3626 32.9148 48.5783 32.9611L49.3919 33.146C49.8603 33.2477 50.2733 33.3833 50.6307 33.5527C50.9913 33.7222 51.2933 33.9241 51.5368 34.1583C51.7833 34.3925 51.9697 34.6622 52.0961 34.9673C52.2224 35.2723 52.2872 35.6144 52.2902 35.9935C52.2872 36.5913 52.1362 37.1044 51.8372 37.5328C51.5383 37.9611 51.1084 38.2893 50.5475 38.5174C49.9897 38.7454 49.3164 38.8595 48.5275 38.8595C47.7355 38.8595 47.0452 38.7408 46.4566 38.5035C45.868 38.2662 45.4103 37.9057 45.0837 37.4218C44.757 36.938 44.589 36.3263 44.5798 35.5867H46.7709C46.7894 35.8918 46.8711 36.146 47.0159 36.3494C47.1607 36.5528 47.3595 36.7069 47.6122 36.8117C47.868 36.9164 48.1638 36.9688 48.4997 36.9688C48.8079 36.9688 49.0699 36.9272 49.2856 36.844C49.5044 36.7608 49.6723 36.6452 49.7894 36.4973C49.9065 36.3494 49.9666 36.1799 49.9697 35.9888C49.9666 35.8101 49.9112 35.6576 49.8033 35.5312C49.6954 35.4018 49.529 35.2908 49.3041 35.1984C49.0822 35.1028 48.7987 35.015 48.4535 34.9349L47.4643 34.7038C46.6445 34.5158 45.9989 34.2122 45.5274 33.7931C45.0559 33.3709 44.8217 32.8008 44.8248 32.0828C44.8217 31.4972 44.9789 30.9841 45.2963 30.5435C45.6137 30.1028 46.0529 29.7592 46.6137 29.5126C47.1746 29.2661 47.8141 29.1428 48.5321 29.1428C49.2655 29.1428 49.9019 29.2676 50.4412 29.5172C50.9836 29.7638 51.4042 30.1105 51.7032 30.5573C52.0021 31.0042 52.1546 31.5219 52.1608 32.1105H49.9697Z" fill="url(#paint7_linear_12_379)"/>
<defs>
<linearGradient id="paint0_linear_12_379" x1="9.95842" y1="9.95842" x2="58.0416" y2="58.0416" gradientUnits="userSpaceOnUse">
<stop stop-color="#FFCA28"/>
<stop offset="1" stop-color="#FF7043"/>
</linearGradient>
<linearGradient id="paint1_linear_12_379" x1="12.1407" y1="7.94929" x2="55.8593" y2="60.0507" gradientUnits="userSpaceOnUse">
<stop stop-color="#FFECB3"/>
<stop offset="0.055" stop-color="#FEE6AA"/>
<stop offset="0.145" stop-color="#FDD792"/>
<stop offset="0.258" stop-color="#FBBE6A"/>
<stop offset="0.389" stop-color="#F89C33"/>
<stop offset="0.5" stop-color="#F57C00"/>
<stop offset="0.613" stop-color="#F67A09"/>
<stop offset="0.798" stop-color="#FA7621"/>
<stop offset="1" stop-color="#FF7043"/>
</linearGradient>
<linearGradient id="paint2_linear_12_379" x1="10.1789" y1="20.2472" x2="57.8201" y2="47.7532" gradientUnits="userSpaceOnUse">
<stop stop-color="#FFB300"/>
<stop offset="1" stop-color="#F4511E"/>
</linearGradient>
<linearGradient id="paint3_linear_12_379" x1="15.3305" y1="33.9793" x2="52.8274" y2="33.9793" gradientUnits="userSpaceOnUse">
<stop stop-color="#FFECB3"/>
<stop offset="0.805" stop-color="#FFE3B2"/>
<stop offset="1" stop-color="#FFE0B2"/>
</linearGradient>
<linearGradient id="paint4_linear_12_379" x1="15.3305" y1="33.9793" x2="52.8274" y2="33.9793" gradientUnits="userSpaceOnUse">
<stop stop-color="#FFECB3"/>
<stop offset="0.805" stop-color="#FFE3B2"/>
<stop offset="1" stop-color="#FFE0B2"/>
</linearGradient>
<linearGradient id="paint5_linear_12_379" x1="15.3305" y1="33.9793" x2="52.8274" y2="33.9793" gradientUnits="userSpaceOnUse">
<stop stop-color="#FFECB3"/>
<stop offset="0.805" stop-color="#FFE3B2"/>
<stop offset="1" stop-color="#FFE0B2"/>
</linearGradient>
<linearGradient id="paint6_linear_12_379" x1="15.3305" y1="33.9793" x2="52.8274" y2="33.9793" gradientUnits="userSpaceOnUse">
<stop stop-color="#FFECB3"/>
<stop offset="0.805" stop-color="#FFE3B2"/>
<stop offset="1" stop-color="#FFE0B2"/>
</linearGradient>
<linearGradient id="paint7_linear_12_379" x1="15.3305" y1="33.9793" x2="52.8274" y2="33.9793" gradientUnits="userSpaceOnUse">
<stop stop-color="#FFECB3"/>
<stop offset="0.805" stop-color="#FFE3B2"/>
<stop offset="1" stop-color="#FFE0B2"/>
</linearGradient>
</defs>
</svg>
