<svg width="362" height="362" viewBox="0 0 362 362" fill="none" xmlns="http://www.w3.org/2000/svg">
<path d="M180.591 324.411C101.614 324.411 37.5892 260.386 37.5892 181.409C37.5892 102.431 101.614 38.4062 180.591 38.4062C259.569 38.4062 323.594 102.431 323.594 181.409C323.594 260.386 259.569 324.411 180.591 324.411Z" fill="url(#paint0_linear_335_25436)"/>
<path d="M180.591 47.8143C107.021 47.8143 46.9973 107.649 46.9973 181.409C46.9973 255.168 107.021 315.003 180.591 315.003C254.162 315.003 314.186 254.979 314.186 181.409C314.186 107.838 254.351 47.8143 180.591 47.8143ZM180.591 38.4062C259.619 38.4062 323.594 102.381 323.594 181.409C323.594 260.436 259.619 324.411 180.591 324.411C101.564 324.411 37.5892 260.436 37.5892 181.409C37.5892 102.381 101.564 38.4062 180.591 38.4062Z" fill="url(#paint1_linear_335_25436)"/>
<path d="M158.527 40.0406C158.527 40.0406 172.472 38.4063 181.408 38.4063C253.726 38.4057 323.184 96.4243 323.184 183.043C323.184 241.878 283.961 317.874 181.408 324.411C170.376 324.411 158.527 322.368 158.527 322.368C158.527 210.676 158.527 151.732 158.527 40.0406Z" fill="url(#paint2_linear_335_25436)"/>
<path d="M180.592 324.411C259.57 324.411 323.594 260.386 323.594 181.409C323.594 102.431 259.57 38.4062 180.592 38.4062C101.614 38.4062 37.5898 102.431 37.5898 181.409C37.5898 260.386 101.614 324.411 180.592 324.411Z" fill="url(#paint3_linear_335_25436)"/>
<path d="M180.592 47.8143C254.163 47.8143 314.186 107.649 314.186 181.409C314.186 255.168 254.163 315.003 180.592 315.003C107.021 315.003 46.9979 254.979 46.9979 181.409C46.9979 107.838 106.833 47.8143 180.592 47.8143ZM180.592 38.4062C101.565 38.4062 37.5898 102.381 37.5898 181.409C37.5898 260.436 101.565 324.411 180.592 324.411C259.62 324.411 323.594 260.436 323.594 181.409C323.594 102.381 259.62 38.4062 180.592 38.4062Z" fill="url(#paint4_linear_335_25436)"/>
<path d="M180.59 297.127C116.803 297.127 64.8711 245.195 64.8711 181.408C64.8711 117.622 116.803 65.6895 180.59 65.6895C244.377 65.6895 296.309 117.622 296.309 181.408C296.309 245.195 244.377 297.127 180.59 297.127ZM180.59 71.3343C119.814 71.3343 70.5159 120.632 70.5159 181.408C70.5159 242.184 119.814 291.482 180.59 291.482C241.366 291.482 290.664 242.184 290.664 181.408C290.664 120.632 241.366 71.3343 180.59 71.3343Z" fill="url(#paint5_linear_335_25436)"/>
<path d="M87.0273 200.932V161.115H96.6513V177.096H112.341V161.115H121.946V200.932H112.341V184.931H96.6513V200.932H87.0273Z" fill="black"/>
<path d="M87.0273 200.932V161.115H96.6513V177.096H112.341V161.115H121.946V200.932H112.341V184.931H96.6513V200.932H87.0273Z" fill="url(#paint6_linear_335_25436)"/>
<path d="M127.982 200.932V161.115H155.746V168.93H137.606V177.096H154.327V184.931H137.606V193.117H155.746V200.932H127.982Z" fill="black"/>
<path d="M127.982 200.932V161.115H155.746V168.93H137.606V177.096H154.327V184.931H137.606V193.117H155.746V200.932H127.982Z" fill="url(#paint7_linear_335_25436)"/>
<path d="M170.386 200.932H160.043L173.477 161.115H186.29L199.724 200.932H189.381L180.029 171.147H179.718L170.386 200.932ZM169.006 185.262H190.625V192.572H169.006V185.262Z" fill="black"/>
<path d="M170.386 200.932H160.043L173.477 161.115H186.29L199.724 200.932H189.381L180.029 171.147H179.718L170.386 200.932ZM169.006 185.262H190.625V192.572H169.006V185.262Z" fill="url(#paint8_linear_335_25436)"/>
<path d="M218.729 200.932H204.011V161.115H218.71C222.767 161.115 226.26 161.912 229.189 163.506C232.131 165.087 234.4 167.369 235.994 170.35C237.588 173.318 238.385 176.869 238.385 181.004C238.385 185.152 237.588 188.716 235.994 191.697C234.413 194.679 232.151 196.966 229.209 198.561C226.266 200.142 222.773 200.932 218.729 200.932ZM213.635 192.728H218.36C220.589 192.728 222.475 192.352 224.018 191.6C225.573 190.835 226.746 189.598 227.537 187.887C228.34 186.163 228.742 183.869 228.742 181.004C228.742 178.14 228.34 175.858 227.537 174.16C226.733 172.45 225.547 171.218 223.979 170.466C222.423 169.702 220.505 169.319 218.224 169.319H213.635V192.728Z" fill="black"/>
<path d="M218.729 200.932H204.011V161.115H218.71C222.767 161.115 226.26 161.912 229.189 163.506C232.131 165.087 234.4 167.369 235.994 170.35C237.588 173.318 238.385 176.869 238.385 181.004C238.385 185.152 237.588 188.716 235.994 191.697C234.413 194.679 232.151 196.966 229.209 198.561C226.266 200.142 222.773 200.932 218.729 200.932ZM213.635 192.728H218.36C220.589 192.728 222.475 192.352 224.018 191.6C225.573 190.835 226.746 189.598 227.537 187.887C228.34 186.163 228.742 183.869 228.742 181.004C228.742 178.14 228.34 175.858 227.537 174.16C226.733 172.45 225.547 171.218 223.979 170.466C222.423 169.702 220.505 169.319 218.224 169.319H213.635V192.728Z" fill="url(#paint9_linear_335_25436)"/>
<path d="M265.527 173.052C265.397 171.626 264.82 170.518 263.796 169.728C262.785 168.924 261.34 168.522 259.461 168.522C258.217 168.522 257.18 168.684 256.35 169.008C255.521 169.332 254.898 169.779 254.484 170.35C254.069 170.907 253.855 171.549 253.842 172.275C253.816 172.871 253.933 173.396 254.192 173.849C254.464 174.303 254.853 174.705 255.359 175.055C255.877 175.392 256.499 175.69 257.225 175.949C257.951 176.208 258.767 176.435 259.675 176.63L263.097 177.407C265.067 177.835 266.804 178.405 268.307 179.118C269.824 179.831 271.094 180.68 272.118 181.665C273.155 182.65 273.939 183.784 274.47 185.068C275.002 186.351 275.274 187.789 275.287 189.384C275.274 191.898 274.639 194.056 273.382 195.858C272.124 197.66 270.316 199.04 267.957 199.999C265.611 200.958 262.779 201.438 259.461 201.438C256.13 201.438 253.226 200.939 250.751 199.941C248.275 198.943 246.35 197.426 244.976 195.391C243.602 193.356 242.896 190.784 242.857 187.673H252.073C252.151 188.956 252.494 190.025 253.103 190.881C253.712 191.736 254.548 192.384 255.611 192.825C256.687 193.266 257.931 193.486 259.344 193.486C260.64 193.486 261.742 193.311 262.649 192.961C263.57 192.611 264.276 192.125 264.769 191.503C265.261 190.881 265.514 190.168 265.527 189.364C265.514 188.613 265.281 187.971 264.827 187.44C264.373 186.895 263.673 186.429 262.727 186.04C261.794 185.638 260.601 185.268 259.15 184.931L254.989 183.959C251.541 183.169 248.826 181.892 246.843 180.129C244.86 178.354 243.875 175.956 243.888 172.936C243.875 170.473 244.536 168.315 245.871 166.461C247.206 164.608 249.053 163.163 251.412 162.126C253.771 161.089 256.46 160.57 259.48 160.57C262.565 160.57 265.242 161.095 267.51 162.145C269.791 163.182 271.56 164.64 272.818 166.52C274.075 168.399 274.717 170.577 274.742 173.052H265.527Z" fill="black"/>
<path d="M265.527 173.052C265.397 171.626 264.82 170.518 263.796 169.728C262.785 168.924 261.34 168.522 259.461 168.522C258.217 168.522 257.18 168.684 256.35 169.008C255.521 169.332 254.898 169.779 254.484 170.35C254.069 170.907 253.855 171.549 253.842 172.275C253.816 172.871 253.933 173.396 254.192 173.849C254.464 174.303 254.853 174.705 255.359 175.055C255.877 175.392 256.499 175.69 257.225 175.949C257.951 176.208 258.767 176.435 259.675 176.63L263.097 177.407C265.067 177.835 266.804 178.405 268.307 179.118C269.824 179.831 271.094 180.68 272.118 181.665C273.155 182.65 273.939 183.784 274.47 185.068C275.002 186.351 275.274 187.789 275.287 189.384C275.274 191.898 274.639 194.056 273.382 195.858C272.124 197.66 270.316 199.04 267.957 199.999C265.611 200.958 262.779 201.438 259.461 201.438C256.13 201.438 253.226 200.939 250.751 199.941C248.275 198.943 246.35 197.426 244.976 195.391C243.602 193.356 242.896 190.784 242.857 187.673H252.073C252.151 188.956 252.494 190.025 253.103 190.881C253.712 191.736 254.548 192.384 255.611 192.825C256.687 193.266 257.931 193.486 259.344 193.486C260.64 193.486 261.742 193.311 262.649 192.961C263.57 192.611 264.276 192.125 264.769 191.503C265.261 190.881 265.514 190.168 265.527 189.364C265.514 188.613 265.281 187.971 264.827 187.44C264.373 186.895 263.673 186.429 262.727 186.04C261.794 185.638 260.601 185.268 259.15 184.931L254.989 183.959C251.541 183.169 248.826 181.892 246.843 180.129C244.86 178.354 243.875 175.956 243.888 172.936C243.875 170.473 244.536 168.315 245.871 166.461C247.206 164.608 249.053 163.163 251.412 162.126C253.771 161.089 256.46 160.57 259.48 160.57C262.565 160.57 265.242 161.095 267.51 162.145C269.791 163.182 271.56 164.64 272.818 166.52C274.075 168.399 274.717 170.577 274.742 173.052H265.527Z" fill="url(#paint10_linear_335_25436)"/>
<defs>
<linearGradient id="paint0_linear_335_25436" x1="281.709" y1="80.2909" x2="79.4738" y2="282.526" gradientUnits="userSpaceOnUse">
<stop stop-color="#FD6B3C"/>
<stop offset="1" stop-color="#FF7043"/>
</linearGradient>
<linearGradient id="paint1_linear_335_25436" x1="272.531" y1="71.8406" x2="88.6523" y2="290.976" gradientUnits="userSpaceOnUse">
<stop offset="0.613" stop-color="#F67A09"/>
<stop offset="0.798" stop-color="#FA7621"/>
<stop offset="1" stop-color="#FF7043"/>
</linearGradient>
<linearGradient id="paint2_linear_335_25436" x1="180.999" y1="38.4063" x2="180.999" y2="324.411" gradientUnits="userSpaceOnUse">
<stop stop-color="#FF7100"/>
<stop offset="1" stop-color="#FF7E18"/>
</linearGradient>
<linearGradient id="paint3_linear_335_25436" x1="79.4745" y1="80.2909" x2="281.71" y2="282.526" gradientUnits="userSpaceOnUse">
<stop stop-color="#FFCA28"/>
<stop offset="1" stop-color="#FF7043"/>
</linearGradient>
<linearGradient id="paint4_linear_335_25436" x1="88.6529" y1="71.8406" x2="272.531" y2="290.976" gradientUnits="userSpaceOnUse">
<stop stop-color="#FFECB3"/>
<stop offset="0.055" stop-color="#FEE6AA"/>
<stop offset="0.145" stop-color="#FDD792"/>
<stop offset="0.258" stop-color="#FBBE6A"/>
<stop offset="0.389" stop-color="#F89C33"/>
<stop offset="0.5" stop-color="#F57C00"/>
<stop offset="0.613" stop-color="#F67A09"/>
<stop offset="0.798" stop-color="#FA7621"/>
<stop offset="1" stop-color="#FF7043"/>
</linearGradient>
<linearGradient id="paint5_linear_335_25436" x1="80.4019" y1="123.564" x2="280.778" y2="239.253" gradientUnits="userSpaceOnUse">
<stop stop-color="#FFB300"/>
<stop offset="1" stop-color="#F4511E"/>
</linearGradient>
<linearGradient id="paint6_linear_335_25436" x1="84.0137" y1="180.912" x2="277.678" y2="180.912" gradientUnits="userSpaceOnUse">
<stop stop-color="#FFECB3"/>
<stop offset="0.805" stop-color="#FFE3B2"/>
<stop offset="1" stop-color="#FFE0B2"/>
</linearGradient>
<linearGradient id="paint7_linear_335_25436" x1="84.0137" y1="180.912" x2="277.678" y2="180.912" gradientUnits="userSpaceOnUse">
<stop stop-color="#FFECB3"/>
<stop offset="0.805" stop-color="#FFE3B2"/>
<stop offset="1" stop-color="#FFE0B2"/>
</linearGradient>
<linearGradient id="paint8_linear_335_25436" x1="84.0137" y1="180.912" x2="277.678" y2="180.912" gradientUnits="userSpaceOnUse">
<stop stop-color="#FFECB3"/>
<stop offset="0.805" stop-color="#FFE3B2"/>
<stop offset="1" stop-color="#FFE0B2"/>
</linearGradient>
<linearGradient id="paint9_linear_335_25436" x1="84.0137" y1="180.912" x2="277.678" y2="180.912" gradientUnits="userSpaceOnUse">
<stop stop-color="#FFECB3"/>
<stop offset="0.805" stop-color="#FFE3B2"/>
<stop offset="1" stop-color="#FFE0B2"/>
</linearGradient>
<linearGradient id="paint10_linear_335_25436" x1="84.0137" y1="180.912" x2="277.678" y2="180.912" gradientUnits="userSpaceOnUse">
<stop stop-color="#FFECB3"/>
<stop offset="0.805" stop-color="#FFE3B2"/>
<stop offset="1" stop-color="#FFE0B2"/>
</linearGradient>
</defs>
</svg>
