<svg width="68" height="68" viewBox="0 0 68 68" fill="none" xmlns="http://www.w3.org/2000/svg">
<path d="M34 68C52.7777 68 68 52.7777 68 34C68 15.2223 52.7777 0 34 0C15.2223 0 0 15.2223 0 34C0 52.7777 15.2223 68 34 68Z" fill="url(#paint0_linear_12_389)"/>
<path d="M34 2.23684C51.4921 2.23684 65.7632 16.4632 65.7632 34C65.7632 51.5368 51.4921 65.7632 34 65.7632C16.5079 65.7632 2.23684 51.4921 2.23684 34C2.23684 16.5079 16.4632 2.23684 34 2.23684ZM34 0C15.2105 0 0 15.2105 0 34C0 52.7895 15.2105 68 34 68C52.7895 68 68 52.7895 68 34C68 15.2105 52.7895 0 34 0Z" fill="url(#paint1_linear_12_389)"/>
<path d="M33.9995 61.5134C18.8337 61.5134 6.48633 49.166 6.48633 34.0002C6.48633 18.8344 18.8337 6.48706 33.9995 6.48706C49.1653 6.48706 61.5126 18.8344 61.5126 34.0002C61.5126 49.166 49.1653 61.5134 33.9995 61.5134ZM33.9995 7.82917C19.5495 7.82917 7.82843 19.5502 7.82843 34.0002C7.82843 48.4502 19.5495 60.1713 33.9995 60.1713C48.4495 60.1713 60.1705 48.4502 60.1705 34.0002C60.1705 19.5502 48.4495 7.82917 33.9995 7.82917Z" fill="url(#paint2_linear_12_389)"/>
<path d="M11.8516 38.7393V29.2723H14.1397V33.072H17.8701V29.2723H20.1537V38.7393H17.8701V34.9349H14.1397V38.7393H11.8516Z" fill="black"/>
<path d="M11.8516 38.7393V29.2723H14.1397V33.072H17.8701V29.2723H20.1537V38.7393H17.8701V34.9349H14.1397V38.7393H11.8516Z" fill="url(#paint3_linear_12_389)"/>
<path d="M21.589 38.7393V29.2723H28.19V31.1305H23.8772V33.072H27.8526V34.9349H23.8772V36.881H28.19V38.7393H21.589Z" fill="black"/>
<path d="M21.589 38.7393V29.2723H28.19V31.1305H23.8772V33.072H27.8526V34.9349H23.8772V36.881H28.19V38.7393H21.589Z" fill="url(#paint4_linear_12_389)"/>
<path d="M31.6708 38.7393H29.2116L32.4058 29.2723H35.4521L38.6463 38.7393H36.1871L33.9636 31.6575H33.8896L31.6708 38.7393ZM31.3426 35.0135H36.4829V36.7516H31.3426V35.0135Z" fill="black"/>
<path d="M31.6708 38.7393H29.2116L32.4058 29.2723H35.4521L38.6463 38.7393H36.1871L33.9636 31.6575H33.8896L31.6708 38.7393ZM31.3426 35.0135H36.4829V36.7516H31.3426V35.0135Z" fill="url(#paint5_linear_12_389)"/>
<path d="M43.1648 38.7393H39.6655V29.2723H43.1602C44.1248 29.2723 44.9553 29.4618 45.6518 29.8408C46.3513 30.2168 46.8906 30.7592 47.2697 31.468C47.6487 32.1737 47.8382 33.0181 47.8382 34.0011C47.8382 34.9873 47.6487 35.8348 47.2697 36.5435C46.8937 37.2523 46.3559 37.7963 45.6564 38.1753C44.9568 38.5513 44.1263 38.7393 43.1648 38.7393ZM41.9537 36.7885H43.077C43.607 36.7885 44.0554 36.6992 44.4222 36.5204C44.792 36.3386 45.0709 36.0443 45.2588 35.6375C45.4499 35.2277 45.5454 34.6822 45.5454 34.0011C45.5454 33.3201 45.4499 32.7777 45.2588 32.374C45.0678 31.9672 44.7858 31.6744 44.4129 31.4957C44.0431 31.3139 43.587 31.223 43.0446 31.223H41.9537V36.7885Z" fill="black"/>
<path d="M43.1648 38.7393H39.6655V29.2723H43.1602C44.1248 29.2723 44.9553 29.4618 45.6518 29.8408C46.3513 30.2168 46.8906 30.7592 47.2697 31.468C47.6487 32.1737 47.8382 33.0181 47.8382 34.0011C47.8382 34.9873 47.6487 35.8348 47.2697 36.5435C46.8937 37.2523 46.3559 37.7963 45.6564 38.1753C44.9568 38.5513 44.1263 38.7393 43.1648 38.7393ZM41.9537 36.7885H43.077C43.607 36.7885 44.0554 36.6992 44.4222 36.5204C44.792 36.3386 45.0709 36.0443 45.2588 35.6375C45.4499 35.2277 45.5454 34.6822 45.5454 34.0011C45.5454 33.3201 45.4499 32.7777 45.2588 32.374C45.0678 31.9672 44.7858 31.6744 44.4129 31.4957C44.0431 31.3139 43.587 31.223 43.0446 31.223H41.9537V36.7885Z" fill="url(#paint6_linear_12_389)"/>
<path d="M54.2913 32.1105C54.2605 31.7715 54.1234 31.508 53.8799 31.3201C53.6395 31.129 53.2959 31.0335 52.8491 31.0335C52.5532 31.0335 52.3067 31.072 52.1095 31.149C51.9122 31.2261 51.7643 31.3324 51.6657 31.468C51.5671 31.6005 51.5162 31.753 51.5132 31.9256C51.507 32.0674 51.5347 32.1922 51.5964 32.3C51.6611 32.4079 51.7535 32.5034 51.8737 32.5866C51.997 32.6668 52.1449 32.7376 52.3175 32.7993C52.4901 32.8609 52.6842 32.9148 52.8999 32.9611L53.7135 33.146C54.1819 33.2477 54.5949 33.3833 54.9524 33.5527C55.3129 33.7222 55.6149 33.9241 55.8584 34.1583C56.1049 34.3925 56.2914 34.6622 56.4177 34.9673C56.5441 35.2723 56.6088 35.6144 56.6119 35.9935C56.6088 36.5913 56.4578 37.1044 56.1588 37.5328C55.8599 37.9611 55.43 38.2893 54.8691 38.5174C54.3114 38.7454 53.638 38.8595 52.8491 38.8595C52.0571 38.8595 51.3668 38.7408 50.7782 38.5035C50.1896 38.2662 49.7319 37.9057 49.4053 37.4218C49.0786 36.938 48.9107 36.3263 48.9014 35.5867H51.0925C51.111 35.8918 51.1927 36.146 51.3375 36.3494C51.4824 36.5528 51.6811 36.7069 51.9338 36.8117C52.1896 36.9164 52.4854 36.9688 52.8214 36.9688C53.1295 36.9688 53.3915 36.9272 53.6072 36.844C53.826 36.7608 53.9939 36.6452 54.111 36.4973C54.2282 36.3494 54.2882 36.1799 54.2913 35.9888C54.2882 35.8101 54.2328 35.6576 54.1249 35.5312C54.0171 35.4018 53.8506 35.2908 53.6257 35.1984C53.4038 35.1028 53.1203 35.015 52.7751 34.9349L51.7859 34.7038C50.9662 34.5158 50.3205 34.2122 49.849 33.7931C49.3775 33.3709 49.1433 32.8008 49.1464 32.0828C49.1433 31.4972 49.3005 30.9841 49.6179 30.5435C49.9353 30.1028 50.3745 29.7592 50.9353 29.5126C51.4962 29.2661 52.1357 29.1428 52.8537 29.1428C53.5872 29.1428 54.2235 29.2676 54.7628 29.5172C55.3052 29.7638 55.7259 30.1105 56.0248 30.5573C56.3237 31.0042 56.4763 31.5219 56.4824 32.1105H54.2913Z" fill="black"/>
<path d="M54.2913 32.1105C54.2605 31.7715 54.1234 31.508 53.8799 31.3201C53.6395 31.129 53.2959 31.0335 52.8491 31.0335C52.5532 31.0335 52.3067 31.072 52.1095 31.149C51.9122 31.2261 51.7643 31.3324 51.6657 31.468C51.5671 31.6005 51.5162 31.753 51.5132 31.9256C51.507 32.0674 51.5347 32.1922 51.5964 32.3C51.6611 32.4079 51.7535 32.5034 51.8737 32.5866C51.997 32.6668 52.1449 32.7376 52.3175 32.7993C52.4901 32.8609 52.6842 32.9148 52.8999 32.9611L53.7135 33.146C54.1819 33.2477 54.5949 33.3833 54.9524 33.5527C55.3129 33.7222 55.6149 33.9241 55.8584 34.1583C56.1049 34.3925 56.2914 34.6622 56.4177 34.9673C56.5441 35.2723 56.6088 35.6144 56.6119 35.9935C56.6088 36.5913 56.4578 37.1044 56.1588 37.5328C55.8599 37.9611 55.43 38.2893 54.8691 38.5174C54.3114 38.7454 53.638 38.8595 52.8491 38.8595C52.0571 38.8595 51.3668 38.7408 50.7782 38.5035C50.1896 38.2662 49.7319 37.9057 49.4053 37.4218C49.0786 36.938 48.9107 36.3263 48.9014 35.5867H51.0925C51.111 35.8918 51.1927 36.146 51.3375 36.3494C51.4824 36.5528 51.6811 36.7069 51.9338 36.8117C52.1896 36.9164 52.4854 36.9688 52.8214 36.9688C53.1295 36.9688 53.3915 36.9272 53.6072 36.844C53.826 36.7608 53.9939 36.6452 54.111 36.4973C54.2282 36.3494 54.2882 36.1799 54.2913 35.9888C54.2882 35.8101 54.2328 35.6576 54.1249 35.5312C54.0171 35.4018 53.8506 35.2908 53.6257 35.1984C53.4038 35.1028 53.1203 35.015 52.7751 34.9349L51.7859 34.7038C50.9662 34.5158 50.3205 34.2122 49.849 33.7931C49.3775 33.3709 49.1433 32.8008 49.1464 32.0828C49.1433 31.4972 49.3005 30.9841 49.6179 30.5435C49.9353 30.1028 50.3745 29.7592 50.9353 29.5126C51.4962 29.2661 52.1357 29.1428 52.8537 29.1428C53.5872 29.1428 54.2235 29.2676 54.7628 29.5172C55.3052 29.7638 55.7259 30.1105 56.0248 30.5573C56.3237 31.0042 56.4763 31.5219 56.4824 32.1105H54.2913Z" fill="url(#paint7_linear_12_389)"/>
<defs>
<linearGradient id="paint0_linear_12_389" x1="9.95842" y1="9.95842" x2="58.0416" y2="58.0416" gradientUnits="userSpaceOnUse">
<stop stop-color="#FFCA28"/>
<stop offset="1" stop-color="#FF7043"/>
</linearGradient>
<linearGradient id="paint1_linear_12_389" x1="12.1407" y1="7.94929" x2="55.8593" y2="60.0507" gradientUnits="userSpaceOnUse">
<stop stop-color="#FFECB3"/>
<stop offset="0.055" stop-color="#FEE6AA"/>
<stop offset="0.145" stop-color="#FDD792"/>
<stop offset="0.258" stop-color="#FBBE6A"/>
<stop offset="0.389" stop-color="#F89C33"/>
<stop offset="0.5" stop-color="#F57C00"/>
<stop offset="0.613" stop-color="#F67A09"/>
<stop offset="0.798" stop-color="#FA7621"/>
<stop offset="1" stop-color="#FF7043"/>
</linearGradient>
<linearGradient id="paint2_linear_12_389" x1="10.1789" y1="20.2472" x2="57.8201" y2="47.7532" gradientUnits="userSpaceOnUse">
<stop stop-color="#FFB300"/>
<stop offset="1" stop-color="#F4511E"/>
</linearGradient>
<linearGradient id="paint3_linear_12_389" x1="11.135" y1="33.9793" x2="57.1804" y2="33.9793" gradientUnits="userSpaceOnUse">
<stop stop-color="#FFECB3"/>
<stop offset="0.805" stop-color="#FFE3B2"/>
<stop offset="1" stop-color="#FFE0B2"/>
</linearGradient>
<linearGradient id="paint4_linear_12_389" x1="11.135" y1="33.9793" x2="57.1804" y2="33.9793" gradientUnits="userSpaceOnUse">
<stop stop-color="#FFECB3"/>
<stop offset="0.805" stop-color="#FFE3B2"/>
<stop offset="1" stop-color="#FFE0B2"/>
</linearGradient>
<linearGradient id="paint5_linear_12_389" x1="11.135" y1="33.9793" x2="57.1804" y2="33.9793" gradientUnits="userSpaceOnUse">
<stop stop-color="#FFECB3"/>
<stop offset="0.805" stop-color="#FFE3B2"/>
<stop offset="1" stop-color="#FFE0B2"/>
</linearGradient>
<linearGradient id="paint6_linear_12_389" x1="11.135" y1="33.9793" x2="57.1804" y2="33.9793" gradientUnits="userSpaceOnUse">
<stop stop-color="#FFECB3"/>
<stop offset="0.805" stop-color="#FFE3B2"/>
<stop offset="1" stop-color="#FFE0B2"/>
</linearGradient>
<linearGradient id="paint7_linear_12_389" x1="11.135" y1="33.9793" x2="57.1804" y2="33.9793" gradientUnits="userSpaceOnUse">
<stop stop-color="#FFECB3"/>
<stop offset="0.805" stop-color="#FFE3B2"/>
<stop offset="1" stop-color="#FFE0B2"/>
</linearGradient>
</defs>
</svg>
