<svg width="362" height="362" viewBox="0 0 362 362" fill="none" xmlns="http://www.w3.org/2000/svg">
<path d="M180.591 324.411C101.614 324.411 37.5892 260.386 37.5892 181.409C37.5892 102.431 101.614 38.4062 180.591 38.4062C259.569 38.4062 323.594 102.431 323.594 181.409C323.594 260.386 259.569 324.411 180.591 324.411Z" fill="url(#paint0_linear_335_25436)"/>
<path d="M180.591 47.8143C107.021 47.8143 46.9973 107.649 46.9973 181.409C46.9973 255.168 107.021 315.003 180.591 315.003C254.162 315.003 314.186 254.979 314.186 181.409C314.186 107.838 254.351 47.8143 180.591 47.8143ZM180.591 38.4062C259.619 38.4062 323.594 102.381 323.594 181.409C323.594 260.436 259.619 324.411 180.591 324.411C101.564 324.411 37.5892 260.436 37.5892 181.409C37.5892 102.381 101.564 38.4062 180.591 38.4062Z" fill="url(#paint1_linear_335_25436)"/>
<path d="M160.164 40.0406L180.593 38.4062L201.43 40.0406L203.473 181.409L201.43 322.776L181.002 324.411L160.164 322.776V40.0406Z" fill="url(#paint2_linear_335_25436)"/>
<path d="M180.592 324.411C259.57 324.411 323.594 260.386 323.594 181.409C323.594 102.431 259.57 38.4062 180.592 38.4062C101.614 38.4062 37.5898 102.431 37.5898 181.409C37.5898 260.386 101.614 324.411 180.592 324.411Z" fill="url(#paint3_linear_335_25436)"/>
<path d="M180.592 47.8143C254.163 47.8143 314.186 107.649 314.186 181.409C314.186 255.168 254.163 315.003 180.592 315.003C107.021 315.003 46.9979 254.979 46.9979 181.409C46.9979 107.838 106.833 47.8143 180.592 47.8143ZM180.592 38.4062C101.565 38.4062 37.5898 102.381 37.5898 181.409C37.5898 260.436 101.565 324.411 180.592 324.411C259.62 324.411 323.594 260.436 323.594 181.409C323.594 102.381 259.62 38.4062 180.592 38.4062Z" fill="url(#paint4_linear_335_25436)"/>
<path d="M180.59 297.127C116.803 297.127 64.8711 245.195 64.8711 181.408C64.8711 117.622 116.803 65.6895 180.59 65.6895C244.377 65.6895 296.309 117.622 296.309 181.408C296.309 245.195 244.377 297.127 180.59 297.127ZM180.59 71.3343C119.814 71.3343 70.5159 120.632 70.5159 181.408C70.5159 242.184 119.814 291.482 180.59 291.482C241.366 291.482 290.664 242.184 290.664 181.408C290.664 120.632 241.366 71.3343 180.59 71.3343Z" fill="url(#paint5_linear_335_25436)"/>
<path d="M103.371 168.93V161.115H137.026V168.93H124.952V200.932H115.464V168.93H103.371Z" fill="black"/>
<path d="M103.371 168.93V161.115H137.026V168.93H124.952V200.932H115.464V168.93H103.371Z" fill="url(#paint6_linear_335_25436)"/>
<path d="M145.366 200.932H135.023L148.458 161.115H161.27L174.705 200.932H164.361L155.01 171.147H154.699L145.366 200.932ZM143.986 185.262H165.606V192.572H143.986V185.262Z" fill="black"/>
<path d="M145.366 200.932H135.023L148.458 161.115H161.27L174.705 200.932H164.361L155.01 171.147H154.699L145.366 200.932ZM143.986 185.262H165.606V192.572H143.986V185.262Z" fill="url(#paint7_linear_335_25436)"/>
<path d="M188.616 161.115V200.932H178.992V161.115H188.616Z" fill="black"/>
<path d="M188.616 161.115V200.932H178.992V161.115H188.616Z" fill="url(#paint8_linear_335_25436)"/>
<path d="M194.657 200.932V161.115H204.281V193.117H220.846V200.932H194.657Z" fill="black"/>
<path d="M194.657 200.932V161.115H204.281V193.117H220.846V200.932H194.657Z" fill="url(#paint9_linear_335_25436)"/>
<path d="M247.351 173.052C247.221 171.626 246.644 170.518 245.62 169.728C244.609 168.924 243.164 168.522 241.285 168.522C240.041 168.522 239.004 168.684 238.174 169.008C237.345 169.332 236.722 169.779 236.308 170.35C235.893 170.907 235.679 171.549 235.666 172.275C235.64 172.871 235.757 173.396 236.016 173.849C236.288 174.303 236.677 174.705 237.183 175.055C237.701 175.392 238.323 175.69 239.049 175.949C239.775 176.208 240.591 176.435 241.499 176.63L244.921 177.407C246.891 177.835 248.628 178.405 250.131 179.118C251.648 179.831 252.918 180.68 253.942 181.665C254.979 182.65 255.763 183.784 256.294 185.068C256.826 186.351 257.098 187.789 257.111 189.384C257.098 191.898 256.463 194.056 255.206 195.858C253.948 197.66 252.14 199.04 249.781 199.999C247.435 200.958 244.603 201.438 241.285 201.438C237.954 201.438 235.05 200.939 232.575 199.941C230.099 198.943 228.174 197.426 226.8 195.391C225.426 193.356 224.72 190.784 224.681 187.673H233.897C233.975 188.956 234.318 190.025 234.927 190.881C235.536 191.736 236.372 192.384 237.435 192.825C238.511 193.266 239.755 193.486 241.168 193.486C242.464 193.486 243.566 193.311 244.473 192.961C245.394 192.611 246.1 192.125 246.593 191.503C247.085 190.881 247.338 190.168 247.351 189.364C247.338 188.613 247.105 187.971 246.651 187.44C246.197 186.895 245.497 186.429 244.551 186.04C243.618 185.638 242.425 185.268 240.974 184.931L236.813 183.959C233.365 183.169 230.65 181.892 228.667 180.129C226.684 178.354 225.699 175.956 225.712 172.936C225.699 170.473 226.36 168.315 227.695 166.461C229.03 164.608 230.877 163.163 233.236 162.126C235.595 161.089 238.284 160.57 241.304 160.57C244.389 160.57 247.066 161.095 249.334 162.145C251.615 163.182 253.384 164.64 254.642 166.52C255.899 168.399 256.541 170.577 256.566 173.052H247.351Z" fill="black"/>
<path d="M247.351 173.052C247.221 171.626 246.644 170.518 245.62 169.728C244.609 168.924 243.164 168.522 241.285 168.522C240.041 168.522 239.004 168.684 238.174 169.008C237.345 169.332 236.722 169.779 236.308 170.35C235.893 170.907 235.679 171.549 235.666 172.275C235.64 172.871 235.757 173.396 236.016 173.849C236.288 174.303 236.677 174.705 237.183 175.055C237.701 175.392 238.323 175.69 239.049 175.949C239.775 176.208 240.591 176.435 241.499 176.63L244.921 177.407C246.891 177.835 248.628 178.405 250.131 179.118C251.648 179.831 252.918 180.68 253.942 181.665C254.979 182.65 255.763 183.784 256.294 185.068C256.826 186.351 257.098 187.789 257.111 189.384C257.098 191.898 256.463 194.056 255.206 195.858C253.948 197.66 252.14 199.04 249.781 199.999C247.435 200.958 244.603 201.438 241.285 201.438C237.954 201.438 235.05 200.939 232.575 199.941C230.099 198.943 228.174 197.426 226.8 195.391C225.426 193.356 224.72 190.784 224.681 187.673H233.897C233.975 188.956 234.318 190.025 234.927 190.881C235.536 191.736 236.372 192.384 237.435 192.825C238.511 193.266 239.755 193.486 241.168 193.486C242.464 193.486 243.566 193.311 244.473 192.961C245.394 192.611 246.1 192.125 246.593 191.503C247.085 190.881 247.338 190.168 247.351 189.364C247.338 188.613 247.105 187.971 246.651 187.44C246.197 186.895 245.497 186.429 244.551 186.04C243.618 185.638 242.425 185.268 240.974 184.931L236.813 183.959C233.365 183.169 230.65 181.892 228.667 180.129C226.684 178.354 225.699 175.956 225.712 172.936C225.699 170.473 226.36 168.315 227.695 166.461C229.03 164.608 230.877 163.163 233.236 162.126C235.595 161.089 238.284 160.57 241.304 160.57C244.389 160.57 247.066 161.095 249.334 162.145C251.615 163.182 253.384 164.64 254.642 166.52C255.899 168.399 256.541 170.577 256.566 173.052H247.351Z" fill="url(#paint10_linear_335_25436)"/>
<defs>
<linearGradient id="paint0_linear_335_25436" x1="281.709" y1="80.2909" x2="79.4738" y2="282.526" gradientUnits="userSpaceOnUse">
<stop stop-color="#FD6B3C"/>
<stop offset="1" stop-color="#FF7043"/>
</linearGradient>
<linearGradient id="paint1_linear_335_25436" x1="272.531" y1="71.8406" x2="88.6523" y2="290.976" gradientUnits="userSpaceOnUse">
<stop offset="0.613" stop-color="#F67A09"/>
<stop offset="0.798" stop-color="#FA7621"/>
<stop offset="1" stop-color="#FF7043"/>
</linearGradient>
<linearGradient id="paint2_linear_335_25436" x1="181.002" y1="38.4062" x2="181.002" y2="324.411" gradientUnits="userSpaceOnUse">
<stop stop-color="#FF7100"/>
<stop offset="1" stop-color="#FF4D43"/>
</linearGradient>
<linearGradient id="paint3_linear_335_25436" x1="79.4745" y1="80.2909" x2="281.71" y2="282.526" gradientUnits="userSpaceOnUse">
<stop stop-color="#FFCA28"/>
<stop offset="1" stop-color="#FF7043"/>
</linearGradient>
<linearGradient id="paint4_linear_335_25436" x1="88.6529" y1="71.8406" x2="272.531" y2="290.976" gradientUnits="userSpaceOnUse">
<stop stop-color="#FFECB3"/>
<stop offset="0.055" stop-color="#FEE6AA"/>
<stop offset="0.145" stop-color="#FDD792"/>
<stop offset="0.258" stop-color="#FBBE6A"/>
<stop offset="0.389" stop-color="#F89C33"/>
<stop offset="0.5" stop-color="#F57C00"/>
<stop offset="0.613" stop-color="#F67A09"/>
<stop offset="0.798" stop-color="#FA7621"/>
<stop offset="1" stop-color="#FF7043"/>
</linearGradient>
<linearGradient id="paint5_linear_335_25436" x1="80.4019" y1="123.564" x2="280.778" y2="239.253" gradientUnits="userSpaceOnUse">
<stop stop-color="#FFB300"/>
<stop offset="1" stop-color="#F4511E"/>
</linearGradient>
<linearGradient id="paint6_linear_335_25436" x1="101.66" y1="180.912" x2="259.37" y2="180.912" gradientUnits="userSpaceOnUse">
<stop stop-color="#FFECB3"/>
<stop offset="0.805" stop-color="#FFE3B2"/>
<stop offset="1" stop-color="#FFE0B2"/>
</linearGradient>
<linearGradient id="paint7_linear_335_25436" x1="101.66" y1="180.912" x2="259.37" y2="180.912" gradientUnits="userSpaceOnUse">
<stop stop-color="#FFECB3"/>
<stop offset="0.805" stop-color="#FFE3B2"/>
<stop offset="1" stop-color="#FFE0B2"/>
</linearGradient>
<linearGradient id="paint8_linear_335_25436" x1="101.66" y1="180.912" x2="259.37" y2="180.912" gradientUnits="userSpaceOnUse">
<stop stop-color="#FFECB3"/>
<stop offset="0.805" stop-color="#FFE3B2"/>
<stop offset="1" stop-color="#FFE0B2"/>
</linearGradient>
<linearGradient id="paint9_linear_335_25436" x1="101.66" y1="180.912" x2="259.37" y2="180.912" gradientUnits="userSpaceOnUse">
<stop stop-color="#FFECB3"/>
<stop offset="0.805" stop-color="#FFE3B2"/>
<stop offset="1" stop-color="#FFE0B2"/>
</linearGradient>
<linearGradient id="paint10_linear_335_25436" x1="101.66" y1="180.912" x2="259.37" y2="180.912" gradientUnits="userSpaceOnUse">
<stop stop-color="#FFECB3"/>
<stop offset="0.805" stop-color="#FFE3B2"/>
<stop offset="1" stop-color="#FFE0B2"/>
</linearGradient>
</defs>
</svg>
