<svg width="22" height="22" viewBox="0 0 22 22" fill="none" xmlns="http://www.w3.org/2000/svg">
<path d="M21.9975 11.005C21.9975 17.0761 17.0752 21.9984 11.004 21.9984C4.93283 21.9984 0 17.0761 0 11.005C0 4.9338 4.93283 0.000976562 11.004 0.000976562C17.0752 0.000976562 21.9975 4.9338 21.9975 11.005Z" fill="#E9EDF1"/>
<mask id="mask0_558_30032" style="mask-type:luminance" maskUnits="userSpaceOnUse" x="0" y="0" width="23" height="23">
<path d="M22.0023 11.0046C22.0023 17.0789 17.0779 22.0023 11.0035 22.0023C4.93025 22.0023 0.00585938 17.0789 0.00585938 11.0046C0.00585938 4.93025 4.93025 0.00585938 11.0035 0.00585938C17.0779 0.00585938 22.0023 4.93025 22.0023 11.0046Z" fill="white"/>
</mask>
<g mask="url(#mask0_558_30032)">
<path d="M22.4321 7.42281L19.8181 2.90105L12.7983 7.89712L13.6204 -0.682617H8.39248L9.21462 7.89712L2.18429 2.90105L-0.429688 7.42281L7.42278 11.0065L-0.429688 14.5902L2.18429 19.1119L9.21462 14.1159L8.39248 22.6956H13.6204L12.7983 14.1159L19.8181 19.1119L22.4321 14.5902L14.5901 11.0065L22.4321 7.42281Z" fill="#4E5559"/>
<path fill-rule="evenodd" clip-rule="evenodd" d="M13.7683 22.832H8.2452L9.04626 14.3892L2.14241 19.3115L-0.619141 14.5263L7.09631 11.0058L-0.619141 7.48538L2.14241 2.70013L9.04626 7.62241L8.2452 -0.820312H13.7683L12.9567 7.62241L19.8605 2.70013L22.6221 7.48538L14.9172 11.0058L22.6221 14.5263L19.8605 19.3115L12.9567 14.3892L13.7683 22.832ZM8.54032 22.5685H13.4732L12.6405 13.8306L19.7867 18.9215L22.2532 14.6527L14.2742 11.0058L22.2532 7.36944L19.7867 3.10065L12.6405 8.18104L13.4732 -0.546269H8.54032L9.38354 8.18104L2.23727 3.10065L-0.229145 7.36944L7.7498 11.0058L-0.229145 14.6527L2.23727 18.9215L9.38354 13.8306L8.54032 22.5685Z" fill="#384044"/>
</g>
<path d="M18.8592 11.0058C18.8592 15.3378 15.3388 18.8583 11.0068 18.8583C6.66419 18.8583 3.1543 15.3378 3.1543 11.0058C3.1543 6.66322 6.66419 3.15332 11.0068 3.15332C15.3388 3.15332 18.8592 6.66322 18.8592 11.0058Z" fill="url(#paint0_linear_558_30032)"/>
<path fill-rule="evenodd" clip-rule="evenodd" d="M11.0066 19.0584C6.55866 19.0584 2.94336 15.4431 2.94336 11.0057C2.94336 6.55768 6.55866 2.94238 11.0066 2.94238C15.4441 2.94238 19.0594 6.55768 19.0594 11.0057C19.0594 15.4431 15.4441 19.0584 11.0066 19.0584ZM11.0066 3.35345C6.78 3.35345 3.35443 6.78957 3.35443 11.0057C3.35443 15.2217 6.78 18.6579 11.0066 18.6579C15.2227 18.6579 18.6588 15.2217 18.6588 11.0057C18.6588 6.78957 15.2227 3.35345 11.0066 3.35345Z" fill="url(#paint1_linear_558_30032)"/>
<path opacity="0.5" d="M11.004 0.54907C16.9803 0.54907 21.8499 5.33432 21.9975 11.279C21.9975 11.1842 21.9975 11.0998 21.9975 11.005C21.9975 4.9338 17.0752 0.000976562 11.004 0.000976562C4.93283 0.000976562 0 4.9338 0 11.005C0 11.0998 0.0105377 11.1842 0.0105377 11.279C0.158101 5.33432 5.01715 0.54907 11.004 0.54907Z" fill="white"/>
<path opacity="0.2" d="M11.004 21.3232C5.03823 21.3232 0.189721 16.5801 0.0105377 10.667C0.0105377 10.7724 0 10.8883 0 11.0043C0 17.0754 4.93283 21.9977 11.004 21.9977C17.0752 21.9977 21.9975 17.0754 21.9975 11.0043C21.9975 10.8883 21.9974 10.7724 21.9869 10.667C21.8077 16.5801 16.9592 21.3232 11.004 21.3232Z" fill="#FEFFFF"/>
<defs>
<linearGradient id="paint0_linear_558_30032" x1="11.0068" y1="3.15332" x2="11.0068" y2="18.8583" gradientUnits="userSpaceOnUse">
<stop stop-color="#4E5559"/>
<stop offset="1" stop-color="#646C70"/>
</linearGradient>
<linearGradient id="paint1_linear_558_30032" x1="10.0026" y1="2.50191" x2="11.0014" y2="19.0584" gradientUnits="userSpaceOnUse">
<stop stop-color="#394043"/>
<stop offset="1" stop-color="#4E5559"/>
</linearGradient>
</defs>
</svg>
