<svg width="22" height="22" viewBox="0 0 22 22" fill="none" xmlns="http://www.w3.org/2000/svg">
<path d="M21.9975 11.004C21.9975 17.0752 17.0752 21.9975 11.004 21.9975C4.93283 21.9975 0 17.0752 0 11.004C0 4.93282 4.93283 0 11.004 0C17.0752 0 21.9975 4.93282 21.9975 11.004Z" fill="#E7F1FC"/>
<mask id="mask0_520_32424" style="mask-type:luminance" maskUnits="userSpaceOnUse" x="0" y="0" width="23" height="23">
<path d="M22.0023 11.0036C22.0023 17.0779 17.0779 22.0013 11.0035 22.0013C4.93025 22.0013 0.00585938 17.0779 0.00585938 11.0036C0.00585938 4.92927 4.93025 0.00488281 11.0035 0.00488281C17.0779 0.00488281 22.0023 4.92927 22.0023 11.0036Z" fill="white"/>
</mask>
<g mask="url(#mask0_520_32424)">
<path d="M22.4321 7.42184L19.8181 2.90008L12.7983 7.89615L13.6204 -0.683594H8.39248L9.21462 7.89615L2.18429 2.90008L-0.429688 7.42184L7.42278 11.0055L-0.429688 14.5892L2.18429 19.111L9.21462 14.1149L8.39248 22.6946H13.6204L12.7983 14.1149L19.8181 19.111L22.4321 14.5892L14.5901 11.0055L22.4321 7.42184Z" fill="#4D92EC"/>
<path fill-rule="evenodd" clip-rule="evenodd" d="M13.7683 22.831H8.2452L9.04626 14.3883L2.14241 19.3105L-0.619141 14.5253L7.09631 11.0048L-0.619141 7.4844L2.14241 2.69915L9.04626 7.62143L8.2452 -0.821289H13.7683L12.9567 7.62143L19.8605 2.69915L22.6221 7.4844L14.9172 11.0048L22.6221 14.5253L19.8605 19.3105L12.9567 14.3883L13.7683 22.831ZM8.54032 22.5675H13.4732L12.6405 13.8296L19.7867 18.9205L22.2532 14.6518L14.2742 11.0048L22.2532 7.36846L19.7867 3.09967L12.6405 8.18007L13.4732 -0.547246H8.54032L9.38354 8.18007L2.23727 3.09967L-0.229145 7.36846L7.7498 11.0048L-0.229145 14.6518L2.23727 18.9205L9.38354 13.8296L8.54032 22.5675Z" fill="#3677CD"/>
</g>
<path d="M18.8592 11.0048C18.8592 15.3368 15.3388 18.8573 11.0068 18.8573C6.66419 18.8573 3.1543 15.3368 3.1543 11.0048C3.1543 6.66224 6.66419 3.15234 11.0068 3.15234C15.3388 3.15234 18.8592 6.66224 18.8592 11.0048Z" fill="url(#paint0_linear_520_32424)"/>
<path fill-rule="evenodd" clip-rule="evenodd" d="M11.0066 19.0574C6.55866 19.0574 2.94336 15.4421 2.94336 11.0047C2.94336 6.5567 6.55866 2.94141 11.0066 2.94141C15.4441 2.94141 19.0594 6.5567 19.0594 11.0047C19.0594 15.4421 15.4441 19.0574 11.0066 19.0574ZM11.0066 3.35248C6.78 3.35248 3.35443 6.78859 3.35443 11.0047C3.35443 15.2208 6.78 18.6569 11.0066 18.6569C15.2227 18.6569 18.6588 15.2208 18.6588 11.0047C18.6588 6.78859 15.2227 3.35248 11.0066 3.35248Z" fill="url(#paint1_linear_520_32424)"/>
<path opacity="0.5" d="M11.004 0.548093C16.9803 0.548093 21.8499 5.33335 21.9975 11.278C21.9975 11.1832 21.9975 11.0989 21.9975 11.004C21.9975 4.93282 17.0752 0 11.004 0C4.93283 0 0 4.93282 0 11.004C0 11.0989 0.0105377 11.1832 0.0105377 11.278C0.158101 5.33335 5.01715 0.548093 11.004 0.548093Z" fill="white"/>
<path opacity="0.2" d="M11.004 21.3222C5.03823 21.3222 0.189721 16.5791 0.0105377 10.666C0.0105377 10.7714 0 10.8874 0 11.0033C0 17.0745 4.93283 21.9968 11.004 21.9968C17.0752 21.9968 21.9975 17.0745 21.9975 11.0033C21.9975 10.8874 21.9974 10.7714 21.9869 10.666C21.8077 16.5791 16.9592 21.3222 11.004 21.3222Z" fill="#FEFFFF"/>
<defs>
<linearGradient id="paint0_linear_520_32424" x1="11.0068" y1="3.15234" x2="11.0068" y2="18.8573" gradientUnits="userSpaceOnUse">
<stop stop-color="#5093EA"/>
<stop offset="1" stop-color="#4D92EC"/>
</linearGradient>
<linearGradient id="paint1_linear_520_32424" x1="10.0026" y1="2.50093" x2="11.0014" y2="19.0574" gradientUnits="userSpaceOnUse">
<stop stop-color="#3C6EB0"/>
<stop offset="1" stop-color="#4075BC"/>
</linearGradient>
</defs>
</svg>
