<svg width="42" height="42" viewBox="0 0 42 42" fill="none" xmlns="http://www.w3.org/2000/svg">
<circle cx="21" cy="21" r="20" fill="url(#paint0_linear_894_37181)"/>
<path fill-rule="evenodd" clip-rule="evenodd" d="M26.9534 9C28.0751 9 28.9685 9.91893 28.8489 11.0342C28.8167 11.3332 28.7758 11.6568 28.7287 12H30.9993C31.5515 12 31.9836 12.4478 31.8616 12.9863C31.5348 14.4277 30.4312 17.1436 26.7024 19.0439C25.668 21.0232 24.1711 22.5999 21.9993 22.9346V26.1084H23.1067C25.2562 26.1084 26.9991 27.8505 26.9993 30C27.5514 30 27.9991 30.4479 27.9993 31C27.9993 31.5523 27.5515 32 26.9993 32H14.9993C14.447 32 13.9993 31.5523 13.9993 31C13.9995 30.4479 14.4471 30 14.9993 30C14.9995 27.8505 16.7423 26.1084 18.8918 26.1084H19.9993V22.8857C18.0439 22.4801 16.6315 21.0264 15.6106 19.2021C11.6223 17.2972 10.4641 14.4684 10.1282 12.9863C10.0062 12.4479 10.4384 12.0002 10.9905 12H13.3411C13.2888 11.6758 13.2434 11.369 13.2053 11.084C13.0542 9.95206 13.954 9.00023 15.0959 9H26.9534ZM19.8157 14.373L17.1936 14.7646L19.0852 16.6221L18.6467 19.2363L20.9983 18.0127L23.3498 19.2363L22.9114 16.6221L24.803 14.7646L22.1809 14.373L20.9983 12L19.8157 14.373Z" fill="url(#paint1_linear_894_37181)"/>
<defs>
<linearGradient id="paint0_linear_894_37181" x1="9" y1="3.5" x2="33" y2="39.5" gradientUnits="userSpaceOnUse">
<stop stop-color="#FFA100"/>
<stop offset="1" stop-color="#FF7C00"/>
</linearGradient>
<linearGradient id="paint1_linear_894_37181" x1="21.2107" y1="9" x2="22.7584" y2="32.0048" gradientUnits="userSpaceOnUse">
<stop stop-color="#FFE132"/>
<stop offset="1" stop-color="#FCBA00"/>
</linearGradient>
</defs>
</svg>
