<svg width="40" height="42" viewBox="0 0 40 42" fill="none" xmlns="http://www.w3.org/2000/svg">
<path d="M16.9609 34.7623C19.1363 36.1419 18.704 38.2568 18.2002 39.1813C17.7063 41.705 15.5783 42.0545 14.5664 41.9108C14.9766 39.7461 16.9339 39.1536 18.0244 39.1129C16.2471 37.8359 16.5654 35.6963 16.9609 34.7623Z" fill="url(#paint0_linear_2031_12982)"/>
<path d="M14.8271 34.3932C17.0332 35.7922 16.5594 37.9481 16.0469 38.8512L16.0449 38.8492C15.0324 41.223 12.8733 41.1072 11.9131 40.7487C12.783 38.6924 14.8669 38.5617 15.9277 38.7692C14.1094 37.4954 14.429 35.3336 14.8271 34.3932Z" fill="url(#paint1_linear_2031_12982)"/>
<path d="M12.8672 33.6139C14.8804 35.2829 14.1409 37.3615 13.5195 38.192C13.5148 38.1881 13.5105 38.1833 13.5059 38.1793C12.119 40.2148 10.0701 39.7497 9.19824 39.2457C10.2818 37.537 12.0924 37.5568 13.1748 37.86C11.8271 36.3867 12.3809 34.4506 12.8672 33.6139Z" fill="url(#paint2_linear_2031_12982)"/>
<path d="M11.2236 32.2399C12.846 34.1151 11.9737 35.941 11.2412 36.7379L11.2451 36.7399C9.70119 38.8572 7.60602 38.2232 6.75098 37.6412C7.99174 35.9687 9.86727 36.183 10.9092 36.5895C9.70766 34.8825 10.594 33.0007 11.2236 32.2399Z" fill="url(#paint3_linear_2031_12982)"/>
<path d="M9.83691 30.8346C11.194 32.9976 9.95059 34.7014 9.10156 35.3365C9.10971 35.3419 9.11804 35.3468 9.12598 35.3522C7.35775 37.2831 5.34483 36.4173 4.55957 35.7428C6.04744 34.1447 8.00231 34.6894 8.9502 35.2418C7.87318 33.3097 9.07895 31.5077 9.83691 30.8346Z" fill="url(#paint4_linear_2031_12982)"/>
<path d="M8.59082 29.2272C9.66257 31.6018 8.12292 33.1326 7.2002 33.6149C5.29838 35.2546 3.42615 34.232 2.7168 33.5006C4.30942 32.0755 6.16172 32.7402 7.07715 33.3668C6.35879 31.3539 7.76305 29.7801 8.59082 29.2272Z" fill="url(#paint5_linear_2031_12982)"/>
<path d="M7.38672 27.4674C8.20013 29.8608 6.64647 31.2246 5.67188 31.6608C5.68117 31.6729 5.69136 31.684 5.7002 31.6959C3.39682 32.9244 1.78332 31.4323 1.26465 30.5328C3.11891 29.5636 4.72768 30.607 5.48242 31.4342C4.96508 29.3637 6.51057 27.9363 7.38672 27.4674Z" fill="url(#paint6_linear_2031_12982)"/>
<path d="M7.17676 25.6442C7.2639 28.1896 5.3579 29.0312 4.30371 29.153C4.3106 29.1683 4.31844 29.1833 4.3252 29.1989C3.36162 29.5694 1.17784 29.7063 0.151367 27.2897C1.11398 27.0439 3.21298 27.0555 4.2041 28.9479C4.26903 26.765 6.19265 25.8369 7.17676 25.6442Z" fill="url(#paint7_linear_2031_12982)"/>
<path d="M6.44336 23.6031C6.53158 26.184 4.57155 27.0127 3.52734 27.1158C3.52898 27.1224 3.53164 27.1289 3.5332 27.1354C1.20019 27.3291 0.389224 25.5217 0.275391 24.5934C2.20068 24.4498 3.16529 25.9728 3.47168 26.9225C3.5275 24.7283 5.45667 23.7965 6.44336 23.6031Z" fill="url(#paint8_linear_2031_12982)"/>
<path d="M0 21.693C1.90735 21.781 2.68883 23.3752 2.8916 24.358C3.24555 22.4868 5.02852 21.909 5.91504 21.8571C5.68323 24.2081 3.77462 24.6869 2.84961 24.6324C2.85066 24.6226 2.85239 24.6129 2.85352 24.6031C0.581005 24.4748 0.00317335 22.6173 0 21.693Z" fill="url(#paint9_linear_2031_12982)"/>
<path d="M0.03125 19.276C1.79216 19.3573 2.51888 20.8215 2.71191 21.735C3.32861 20.0818 5.0483 19.8369 5.86719 19.9303C5.288 22.0438 3.46874 22.1789 2.63086 21.9821C2.63149 21.9798 2.63218 21.9774 2.63281 21.9752C0.562528 21.8332 0.0341737 20.1276 0.03125 19.276Z" fill="url(#paint10_linear_2031_12982)"/>
<path d="M1.19531 17.0084C1.83585 17.268 2.98735 18.1157 2.8877 19.5387C3.46278 18.2188 4.88762 18.0216 5.57715 18.1002C5.08996 19.8778 3.59353 20.0424 2.83789 19.8961C2.83602 19.9052 2.83498 19.9144 2.83301 19.9235C2.11172 19.7255 0.775419 18.8659 1.19531 17.0084Z" fill="url(#paint11_linear_2031_12982)"/>
<path d="M1.61523 15.2614C2.98535 15.7005 3.24496 17.0145 3.20215 17.7682C3.88385 16.5102 5.29357 16.5126 5.94043 16.6823C5.23613 18.3109 3.76133 18.2094 3.11133 17.9547C3.11431 17.948 3.11709 17.9409 3.12012 17.9342C1.50106 17.3923 1.4395 15.9326 1.61523 15.2614Z" fill="url(#paint12_linear_2031_12982)"/>
<path d="M2.89844 13.0778C4.07786 13.8396 3.98865 15.1438 3.75879 15.8365C4.41999 14.6173 5.78603 14.6193 6.41309 14.7838C5.72997 16.3635 4.29896 16.2643 3.66895 16.0172C3.67313 16.0078 3.67738 15.9982 3.68164 15.9889C2.25519 15.0718 2.56391 13.6677 2.89844 13.0778Z" fill="url(#paint13_linear_2031_12982)"/>
<path d="M3.87305 10.9557C4.38585 11.344 5.22474 12.4013 4.72754 13.6647C5.61452 12.682 6.90905 12.9526 7.47852 13.233C6.49887 14.6445 5.11609 14.2614 4.54688 13.8932C4.55595 13.8803 4.56503 13.8676 4.57422 13.8551C3.98704 13.48 3.09927 12.4333 3.87305 10.9557Z" fill="url(#paint14_linear_2031_12982)"/>
<path d="M5.73926 9.26624C6.09958 9.72936 6.58871 10.848 5.89648 11.8453C6.91925 11.1941 8.0037 11.7445 8.44434 12.1315C7.28124 13.1165 6.17987 12.5306 5.7207 12.069L5.71777 12.0729C5.27687 11.6248 4.66394 10.4359 5.73926 9.26624Z" fill="url(#paint15_linear_2031_12982)"/>
<path d="M6.99121 8.05627C7.32621 8.48703 7.783 9.53976 7.09082 10.4615C8.14571 9.96709 9.07095 10.6594 9.41406 11.0885C8.21582 11.7845 7.32039 11.0817 6.98242 10.5944C6.97843 10.5989 6.97573 10.6045 6.97168 10.609C6.57054 10.2013 6.01303 9.12035 6.99121 8.05627Z" fill="url(#paint16_linear_2031_12982)"/>
<path d="M8.63574 7.16272C9.11091 8.11396 8.55552 8.92367 8.14258 9.28479C9.11852 8.84366 9.94077 9.50357 10.2383 9.90393C9.12028 10.5005 8.33136 9.80203 8.05957 9.3551C8.05334 9.35987 8.0481 9.36621 8.04199 9.37073C7.4523 8.21437 8.19219 7.41676 8.63574 7.16272Z" fill="url(#paint17_linear_2031_12982)"/>
<path d="M9.56641 6.37073C10.0396 7.09239 9.73705 7.80058 9.43262 8.19104C10.2406 7.90827 10.9109 8.45381 11.1611 8.79065C10.2239 9.29061 9.55025 8.76009 9.27734 8.36682C9.27534 8.36873 9.27445 8.37179 9.27246 8.37366C8.63533 7.41932 9.20278 6.64044 9.56641 6.37073Z" fill="url(#paint18_linear_2031_12982)"/>
<path d="M9.82129 7.81213C10.4164 6.98237 11.3766 7.18265 11.7822 7.38635C11.121 8.32454 10.1993 8.06106 9.82129 7.81213Z" fill="url(#paint19_linear_2031_12982)"/>
<path d="M23.0396 34.824C20.8642 36.2035 21.2955 38.3183 21.7993 39.2429C22.2932 41.7666 24.4211 42.1161 25.4331 41.9724C25.0229 39.8075 23.0655 39.2152 21.9751 39.1746C23.7527 37.8976 23.4351 35.758 23.0396 34.824Z" fill="url(#paint20_linear_2031_12982)"/>
<path d="M25.1733 34.4548C22.9672 35.8538 23.4402 38.0097 23.9526 38.9128L23.9546 38.9109C24.967 41.2845 27.1261 41.1688 28.0864 40.8103C27.2166 38.7545 25.1337 38.6235 24.0728 38.8308C25.8906 37.5571 25.5715 35.3952 25.1733 34.4548Z" fill="url(#paint21_linear_2031_12982)"/>
<path d="M27.1333 33.6755C25.1199 35.3446 25.8586 37.4231 26.48 38.2537C26.4846 38.2498 26.4891 38.2449 26.4937 38.241C27.8804 40.2765 29.9293 39.8113 30.8013 39.3074C29.7176 37.5985 27.9071 37.6184 26.8247 37.9216C28.1725 36.4485 27.6196 34.5125 27.1333 33.6755Z" fill="url(#paint22_linear_2031_12982)"/>
<path d="M28.7759 32.3015C27.1538 34.1765 28.0259 36.0026 28.7583 36.7996L28.7544 36.8015C30.2986 38.9194 32.3947 38.2849 33.2495 37.7029C32.0086 36.0302 30.1322 36.2445 29.0903 36.6511C30.2921 34.9441 29.4056 33.0624 28.7759 32.3015Z" fill="url(#paint23_linear_2031_12982)"/>
<path d="M30.1636 30.8962C28.8065 33.0591 30.0489 34.7629 30.898 35.3982C30.8899 35.4035 30.8814 35.4085 30.8735 35.4138C32.6417 37.3448 34.6546 36.4789 35.4399 35.8044C33.9519 34.2062 31.9971 34.751 31.0493 35.3035C32.1264 33.3715 30.9216 31.5696 30.1636 30.8962Z" fill="url(#paint24_linear_2031_12982)"/>
<path d="M31.4097 29.2888C30.3379 31.6634 31.8765 33.1941 32.7993 33.6765C34.7014 35.3167 36.5745 34.2936 37.2837 33.5623C35.6909 32.1368 33.8377 32.8018 32.9224 33.4285C33.6408 31.4157 32.2375 29.8418 31.4097 29.2888Z" fill="url(#paint25_linear_2031_12982)"/>
<path d="M32.6128 27.5291C31.7995 29.9222 33.353 31.2861 34.3276 31.7224C34.3184 31.7345 34.3081 31.7457 34.2993 31.7576C36.6028 32.9863 38.2162 31.494 38.7349 30.5945C36.8809 29.6254 35.2729 30.6687 34.5181 31.4958C35.0353 29.4254 33.4889 27.9979 32.6128 27.5291Z" fill="url(#paint26_linear_2031_12982)"/>
<path d="M32.8237 25.7058C32.7366 28.2518 34.6427 29.0932 35.6968 29.2146C35.6899 29.2299 35.6821 29.2449 35.6753 29.2605C36.6391 29.631 38.8228 29.7678 39.8491 27.3513C38.8864 27.1055 36.7864 27.117 35.7954 29.0105C35.7311 26.8272 33.8081 25.8987 32.8237 25.7058Z" fill="url(#paint27_linear_2031_12982)"/>
<path d="M33.5562 23.6648C33.468 26.2461 35.4291 27.0746 36.4731 27.1775C36.4715 27.1841 36.4689 27.1905 36.4673 27.197C38.8004 27.3906 39.6105 25.5821 39.7241 24.6541C37.7986 24.5107 36.8349 26.0355 36.5288 26.9851C36.4736 24.79 34.5429 23.8581 33.5562 23.6648Z" fill="url(#paint28_linear_2031_12982)"/>
<path d="M39.9995 21.7546C38.0931 21.8428 37.312 23.4358 37.1089 24.4187C36.7546 22.5482 34.9719 21.9707 34.0855 21.9187C34.3173 24.2696 36.2249 24.7485 37.1499 24.6941C37.1489 24.6843 37.1481 24.6745 37.147 24.6648C39.419 24.5362 39.9963 22.6789 39.9995 21.7546Z" fill="url(#paint29_linear_2031_12982)"/>
<path d="M39.9683 19.3376C38.2083 19.4191 37.4819 20.8822 37.2886 21.7957C36.6716 20.1428 34.951 19.8985 34.1323 19.9919C34.7116 22.1059 36.5319 22.2407 37.3696 22.0437C37.3689 22.0412 37.3684 22.0383 37.3677 22.0359C39.4374 21.8935 39.9653 20.1891 39.9683 19.3376Z" fill="url(#paint30_linear_2031_12982)"/>
<path d="M38.8052 17.0691C38.165 17.3283 37.0133 18.1762 37.1118 19.5984C36.5362 18.2799 35.1115 18.0832 34.4224 18.1619C34.9095 19.9392 36.4059 20.1039 37.1616 19.9578C37.1635 19.9668 37.1645 19.976 37.1665 19.9851C37.8878 19.7873 39.2254 18.9271 38.8052 17.0691Z" fill="url(#paint31_linear_2031_12982)"/>
<path d="M38.3843 15.323C37.0141 15.7622 36.7545 17.0761 36.7974 17.8298C36.1155 16.5718 34.7058 16.5742 34.0591 16.7439C34.7636 18.3731 36.2394 18.2702 36.8892 18.0154C36.8863 18.0088 36.8833 18.0023 36.8804 17.9958C38.4989 17.4538 38.56 15.9942 38.3843 15.323Z" fill="url(#paint32_linear_2031_12982)"/>
<path d="M37.1011 13.1394C35.9201 13.9024 36.012 15.2092 36.2427 15.9011C35.582 14.6788 34.2139 14.6808 33.5864 14.8455C34.2695 16.4252 35.7005 16.3259 36.3306 16.0789C36.3264 16.0694 36.3221 16.0599 36.3179 16.0505C37.7447 15.1334 37.4357 13.7293 37.1011 13.1394Z" fill="url(#paint33_linear_2031_12982)"/>
<path d="M36.1274 11.0173C35.6147 11.4054 34.7747 12.4627 35.272 13.7263C34.3852 12.744 33.0916 13.0143 32.522 13.2947C33.5018 14.7062 34.8847 14.3231 35.4536 13.9548C35.4446 13.9421 35.4354 13.9292 35.4263 13.9167C36.0134 13.5414 36.9008 12.4944 36.1274 11.0173Z" fill="url(#paint34_linear_2031_12982)"/>
<path d="M34.2603 9.32788C33.9 9.79099 33.4121 10.9088 34.104 11.906C33.0813 11.2548 31.9969 11.8062 31.5562 12.1931C32.7189 13.1776 33.8196 12.5922 34.2788 12.1306L34.2817 12.1345C34.7227 11.6864 35.3356 10.4975 34.2603 9.32788Z" fill="url(#paint35_linear_2031_12982)"/>
<path d="M33.0083 8.11792C32.6733 8.54857 32.2161 9.60117 32.9087 10.5232C31.8541 10.0291 30.9297 10.721 30.5864 11.1501C31.7844 11.8459 32.679 11.1433 33.0171 10.656C33.0211 10.6605 33.0238 10.6662 33.0278 10.6707C33.4289 10.2628 33.9859 9.1817 33.0083 8.11792Z" fill="url(#paint36_linear_2031_12982)"/>
<path d="M31.3647 7.22437C30.8896 8.17549 31.444 8.98523 31.8569 9.34644C30.881 8.90549 30.0586 9.56527 29.7612 9.96558C30.8791 10.5622 31.668 9.8637 31.9399 9.41675C31.9462 9.42157 31.9513 9.4278 31.9575 9.43237C32.5471 8.27632 31.8083 7.47863 31.3647 7.22437Z" fill="url(#paint37_linear_2031_12982)"/>
<path d="M30.4331 6.43237C29.9602 7.15357 30.2627 7.86109 30.5669 8.25171C29.7591 7.9694 29.0885 8.51555 28.8384 8.85229C29.7756 9.3524 30.4491 8.82175 30.7222 8.42847C30.7242 8.43044 30.726 8.43337 30.728 8.4353C31.3652 7.48097 30.7967 6.70208 30.4331 6.43237Z" fill="url(#paint38_linear_2031_12982)"/>
<path d="M30.1782 7.87378C29.5831 7.04408 28.6228 7.24429 28.2173 7.448C28.8786 8.38632 29.8002 8.12271 30.1782 7.87378Z" fill="url(#paint39_linear_2031_12982)"/>
<path d="M20.0987 0L21.3498 3.02908L24.6172 3.2829L22.123 5.40879L22.8913 8.59473L20.0987 6.87952L17.3061 8.59473L18.0744 5.40879L15.5802 3.2829L18.8476 3.02908L20.0987 0Z" fill="url(#paint40_linear_2031_12982)"/>
<path d="M14.0195 3.68738L14.6501 5.21403L16.2968 5.34195L15.0398 6.41339L15.427 8.01909L14.0195 7.15463L12.6121 8.01909L12.9993 6.41339L11.7422 5.34195L13.389 5.21403L14.0195 3.68738Z" fill="url(#paint41_linear_2031_12982)"/>
<path d="M26.1367 3.68738L26.7672 5.21403L28.414 5.34195L27.1569 6.41339L27.5442 8.01909L26.1367 7.15463L24.7292 8.01909L25.1165 6.41339L23.8594 5.34195L25.5062 5.21403L26.1367 3.68738Z" fill="url(#paint42_linear_2031_12982)"/>
<defs>
<linearGradient id="paint0_linear_2031_12982" x1="-6.76758" y1="26.0345" x2="11.6469" y2="36.3203" gradientUnits="userSpaceOnUse">
<stop stop-color="#7B7B82"/>
<stop offset="0.510127" stop-color="#999E9D"/>
<stop offset="1" stop-color="#BBC2C4"/>
</linearGradient>
<linearGradient id="paint1_linear_2031_12982" x1="-6.76758" y1="26.0345" x2="11.6469" y2="36.3203" gradientUnits="userSpaceOnUse">
<stop stop-color="#7B7B82"/>
<stop offset="0.510127" stop-color="#999E9D"/>
<stop offset="1" stop-color="#BBC2C4"/>
</linearGradient>
<linearGradient id="paint2_linear_2031_12982" x1="-6.76758" y1="26.0345" x2="11.6469" y2="36.3203" gradientUnits="userSpaceOnUse">
<stop stop-color="#7B7B82"/>
<stop offset="0.510127" stop-color="#999E9D"/>
<stop offset="1" stop-color="#BBC2C4"/>
</linearGradient>
<linearGradient id="paint3_linear_2031_12982" x1="-6.76758" y1="26.0345" x2="11.6469" y2="36.3203" gradientUnits="userSpaceOnUse">
<stop stop-color="#7B7B82"/>
<stop offset="0.510127" stop-color="#999E9D"/>
<stop offset="1" stop-color="#BBC2C4"/>
</linearGradient>
<linearGradient id="paint4_linear_2031_12982" x1="-6.76758" y1="26.0345" x2="11.6469" y2="36.3203" gradientUnits="userSpaceOnUse">
<stop stop-color="#7B7B82"/>
<stop offset="0.510127" stop-color="#999E9D"/>
<stop offset="1" stop-color="#BBC2C4"/>
</linearGradient>
<linearGradient id="paint5_linear_2031_12982" x1="-6.76758" y1="26.0345" x2="11.6469" y2="36.3203" gradientUnits="userSpaceOnUse">
<stop stop-color="#7B7B82"/>
<stop offset="0.510127" stop-color="#999E9D"/>
<stop offset="1" stop-color="#BBC2C4"/>
</linearGradient>
<linearGradient id="paint6_linear_2031_12982" x1="-6.76758" y1="26.0345" x2="11.6469" y2="36.3203" gradientUnits="userSpaceOnUse">
<stop stop-color="#7B7B82"/>
<stop offset="0.510127" stop-color="#999E9D"/>
<stop offset="1" stop-color="#BBC2C4"/>
</linearGradient>
<linearGradient id="paint7_linear_2031_12982" x1="-6.76758" y1="26.0345" x2="11.6469" y2="36.3203" gradientUnits="userSpaceOnUse">
<stop stop-color="#7B7B82"/>
<stop offset="0.510127" stop-color="#999E9D"/>
<stop offset="1" stop-color="#BBC2C4"/>
</linearGradient>
<linearGradient id="paint8_linear_2031_12982" x1="-6.76758" y1="26.0345" x2="11.6469" y2="36.3203" gradientUnits="userSpaceOnUse">
<stop stop-color="#7B7B82"/>
<stop offset="0.510127" stop-color="#999E9D"/>
<stop offset="1" stop-color="#BBC2C4"/>
</linearGradient>
<linearGradient id="paint9_linear_2031_12982" x1="-6.76758" y1="26.0345" x2="11.6469" y2="36.3203" gradientUnits="userSpaceOnUse">
<stop stop-color="#7B7B82"/>
<stop offset="0.510127" stop-color="#999E9D"/>
<stop offset="1" stop-color="#BBC2C4"/>
</linearGradient>
<linearGradient id="paint10_linear_2031_12982" x1="-6.76758" y1="26.0345" x2="11.6469" y2="36.3203" gradientUnits="userSpaceOnUse">
<stop stop-color="#7B7B82"/>
<stop offset="0.510127" stop-color="#999E9D"/>
<stop offset="1" stop-color="#BBC2C4"/>
</linearGradient>
<linearGradient id="paint11_linear_2031_12982" x1="-6.76758" y1="26.0345" x2="11.6469" y2="36.3203" gradientUnits="userSpaceOnUse">
<stop stop-color="#7B7B82"/>
<stop offset="0.510127" stop-color="#999E9D"/>
<stop offset="1" stop-color="#BBC2C4"/>
</linearGradient>
<linearGradient id="paint12_linear_2031_12982" x1="-6.76758" y1="26.0345" x2="11.6469" y2="36.3203" gradientUnits="userSpaceOnUse">
<stop stop-color="#7B7B82"/>
<stop offset="0.510127" stop-color="#999E9D"/>
<stop offset="1" stop-color="#BBC2C4"/>
</linearGradient>
<linearGradient id="paint13_linear_2031_12982" x1="-6.76758" y1="26.0345" x2="11.6469" y2="36.3203" gradientUnits="userSpaceOnUse">
<stop stop-color="#7B7B82"/>
<stop offset="0.510127" stop-color="#999E9D"/>
<stop offset="1" stop-color="#BBC2C4"/>
</linearGradient>
<linearGradient id="paint14_linear_2031_12982" x1="-6.76758" y1="26.0345" x2="11.6469" y2="36.3203" gradientUnits="userSpaceOnUse">
<stop stop-color="#7B7B82"/>
<stop offset="0.510127" stop-color="#999E9D"/>
<stop offset="1" stop-color="#BBC2C4"/>
</linearGradient>
<linearGradient id="paint15_linear_2031_12982" x1="-6.76758" y1="26.0345" x2="11.6469" y2="36.3203" gradientUnits="userSpaceOnUse">
<stop stop-color="#7B7B82"/>
<stop offset="0.510127" stop-color="#999E9D"/>
<stop offset="1" stop-color="#BBC2C4"/>
</linearGradient>
<linearGradient id="paint16_linear_2031_12982" x1="-6.76758" y1="26.0345" x2="11.6469" y2="36.3203" gradientUnits="userSpaceOnUse">
<stop stop-color="#7B7B82"/>
<stop offset="0.510127" stop-color="#999E9D"/>
<stop offset="1" stop-color="#BBC2C4"/>
</linearGradient>
<linearGradient id="paint17_linear_2031_12982" x1="-6.76758" y1="26.0345" x2="11.6469" y2="36.3203" gradientUnits="userSpaceOnUse">
<stop stop-color="#7B7B82"/>
<stop offset="0.510127" stop-color="#999E9D"/>
<stop offset="1" stop-color="#BBC2C4"/>
</linearGradient>
<linearGradient id="paint18_linear_2031_12982" x1="-6.76758" y1="26.0345" x2="11.6469" y2="36.3203" gradientUnits="userSpaceOnUse">
<stop stop-color="#7B7B82"/>
<stop offset="0.510127" stop-color="#999E9D"/>
<stop offset="1" stop-color="#BBC2C4"/>
</linearGradient>
<linearGradient id="paint19_linear_2031_12982" x1="-6.76758" y1="26.0345" x2="11.6469" y2="36.3203" gradientUnits="userSpaceOnUse">
<stop stop-color="#7B7B82"/>
<stop offset="0.510127" stop-color="#999E9D"/>
<stop offset="1" stop-color="#BBC2C4"/>
</linearGradient>
<linearGradient id="paint20_linear_2031_12982" x1="14.6232" y1="26.0962" x2="33.0375" y2="36.3816" gradientUnits="userSpaceOnUse">
<stop stop-color="#7B7B82"/>
<stop offset="0.510127" stop-color="#999E9D"/>
<stop offset="1" stop-color="#BBC2C4"/>
</linearGradient>
<linearGradient id="paint21_linear_2031_12982" x1="14.6232" y1="26.0962" x2="33.0375" y2="36.3816" gradientUnits="userSpaceOnUse">
<stop stop-color="#7B7B82"/>
<stop offset="0.510127" stop-color="#999E9D"/>
<stop offset="1" stop-color="#BBC2C4"/>
</linearGradient>
<linearGradient id="paint22_linear_2031_12982" x1="14.6232" y1="26.0962" x2="33.0375" y2="36.3816" gradientUnits="userSpaceOnUse">
<stop stop-color="#7B7B82"/>
<stop offset="0.510127" stop-color="#999E9D"/>
<stop offset="1" stop-color="#BBC2C4"/>
</linearGradient>
<linearGradient id="paint23_linear_2031_12982" x1="14.6232" y1="26.0962" x2="33.0375" y2="36.3816" gradientUnits="userSpaceOnUse">
<stop stop-color="#7B7B82"/>
<stop offset="0.510127" stop-color="#999E9D"/>
<stop offset="1" stop-color="#BBC2C4"/>
</linearGradient>
<linearGradient id="paint24_linear_2031_12982" x1="14.6232" y1="26.0962" x2="33.0375" y2="36.3816" gradientUnits="userSpaceOnUse">
<stop stop-color="#7B7B82"/>
<stop offset="0.510127" stop-color="#999E9D"/>
<stop offset="1" stop-color="#BBC2C4"/>
</linearGradient>
<linearGradient id="paint25_linear_2031_12982" x1="14.6232" y1="26.0962" x2="33.0375" y2="36.3816" gradientUnits="userSpaceOnUse">
<stop stop-color="#7B7B82"/>
<stop offset="0.510127" stop-color="#999E9D"/>
<stop offset="1" stop-color="#BBC2C4"/>
</linearGradient>
<linearGradient id="paint26_linear_2031_12982" x1="14.6232" y1="26.0962" x2="33.0375" y2="36.3816" gradientUnits="userSpaceOnUse">
<stop stop-color="#7B7B82"/>
<stop offset="0.510127" stop-color="#999E9D"/>
<stop offset="1" stop-color="#BBC2C4"/>
</linearGradient>
<linearGradient id="paint27_linear_2031_12982" x1="14.6232" y1="26.0962" x2="33.0375" y2="36.3816" gradientUnits="userSpaceOnUse">
<stop stop-color="#7B7B82"/>
<stop offset="0.510127" stop-color="#999E9D"/>
<stop offset="1" stop-color="#BBC2C4"/>
</linearGradient>
<linearGradient id="paint28_linear_2031_12982" x1="14.6232" y1="26.0962" x2="33.0375" y2="36.3816" gradientUnits="userSpaceOnUse">
<stop stop-color="#7B7B82"/>
<stop offset="0.510127" stop-color="#999E9D"/>
<stop offset="1" stop-color="#BBC2C4"/>
</linearGradient>
<linearGradient id="paint29_linear_2031_12982" x1="14.6232" y1="26.0962" x2="33.0375" y2="36.3816" gradientUnits="userSpaceOnUse">
<stop stop-color="#7B7B82"/>
<stop offset="0.510127" stop-color="#999E9D"/>
<stop offset="1" stop-color="#BBC2C4"/>
</linearGradient>
<linearGradient id="paint30_linear_2031_12982" x1="14.6232" y1="26.0962" x2="33.0375" y2="36.3816" gradientUnits="userSpaceOnUse">
<stop stop-color="#7B7B82"/>
<stop offset="0.510127" stop-color="#999E9D"/>
<stop offset="1" stop-color="#BBC2C4"/>
</linearGradient>
<linearGradient id="paint31_linear_2031_12982" x1="14.6232" y1="26.0962" x2="33.0375" y2="36.3816" gradientUnits="userSpaceOnUse">
<stop stop-color="#7B7B82"/>
<stop offset="0.510127" stop-color="#999E9D"/>
<stop offset="1" stop-color="#BBC2C4"/>
</linearGradient>
<linearGradient id="paint32_linear_2031_12982" x1="14.6232" y1="26.0962" x2="33.0375" y2="36.3816" gradientUnits="userSpaceOnUse">
<stop stop-color="#7B7B82"/>
<stop offset="0.510127" stop-color="#999E9D"/>
<stop offset="1" stop-color="#BBC2C4"/>
</linearGradient>
<linearGradient id="paint33_linear_2031_12982" x1="14.6232" y1="26.0962" x2="33.0375" y2="36.3816" gradientUnits="userSpaceOnUse">
<stop stop-color="#7B7B82"/>
<stop offset="0.510127" stop-color="#999E9D"/>
<stop offset="1" stop-color="#BBC2C4"/>
</linearGradient>
<linearGradient id="paint34_linear_2031_12982" x1="14.6232" y1="26.0962" x2="33.0375" y2="36.3816" gradientUnits="userSpaceOnUse">
<stop stop-color="#7B7B82"/>
<stop offset="0.510127" stop-color="#999E9D"/>
<stop offset="1" stop-color="#BBC2C4"/>
</linearGradient>
<linearGradient id="paint35_linear_2031_12982" x1="14.6232" y1="26.0962" x2="33.0375" y2="36.3816" gradientUnits="userSpaceOnUse">
<stop stop-color="#7B7B82"/>
<stop offset="0.510127" stop-color="#999E9D"/>
<stop offset="1" stop-color="#BBC2C4"/>
</linearGradient>
<linearGradient id="paint36_linear_2031_12982" x1="14.6232" y1="26.0962" x2="33.0375" y2="36.3816" gradientUnits="userSpaceOnUse">
<stop stop-color="#7B7B82"/>
<stop offset="0.510127" stop-color="#999E9D"/>
<stop offset="1" stop-color="#BBC2C4"/>
</linearGradient>
<linearGradient id="paint37_linear_2031_12982" x1="14.6232" y1="26.0962" x2="33.0375" y2="36.3816" gradientUnits="userSpaceOnUse">
<stop stop-color="#7B7B82"/>
<stop offset="0.510127" stop-color="#999E9D"/>
<stop offset="1" stop-color="#BBC2C4"/>
</linearGradient>
<linearGradient id="paint38_linear_2031_12982" x1="14.6232" y1="26.0962" x2="33.0375" y2="36.3816" gradientUnits="userSpaceOnUse">
<stop stop-color="#7B7B82"/>
<stop offset="0.510127" stop-color="#999E9D"/>
<stop offset="1" stop-color="#BBC2C4"/>
</linearGradient>
<linearGradient id="paint39_linear_2031_12982" x1="14.6232" y1="26.0962" x2="33.0375" y2="36.3816" gradientUnits="userSpaceOnUse">
<stop stop-color="#7B7B82"/>
<stop offset="0.510127" stop-color="#999E9D"/>
<stop offset="1" stop-color="#BBC2C4"/>
</linearGradient>
<linearGradient id="paint40_linear_2031_12982" x1="20.6926" y1="9.20516" x2="17.9837" y2="1.55278" gradientUnits="userSpaceOnUse">
<stop stop-color="#7B7B82"/>
<stop offset="0.510127" stop-color="#999E9D"/>
<stop offset="1" stop-color="#BBC2C4"/>
</linearGradient>
<linearGradient id="paint41_linear_2031_12982" x1="14.3188" y1="8.32675" x2="12.9536" y2="4.46997" gradientUnits="userSpaceOnUse">
<stop stop-color="#7B7B82"/>
<stop offset="0.510127" stop-color="#999E9D"/>
<stop offset="1" stop-color="#BBC2C4"/>
</linearGradient>
<linearGradient id="paint42_linear_2031_12982" x1="26.436" y1="8.32675" x2="25.0708" y2="4.46997" gradientUnits="userSpaceOnUse">
<stop stop-color="#7B7B82"/>
<stop offset="0.510127" stop-color="#999E9D"/>
<stop offset="1" stop-color="#BBC2C4"/>
</linearGradient>
</defs>
</svg>
